<svg xmlns="http://www.w3.org/2000/svg" version="1.1" xmlns:xlink="http://www.w3.org/1999/xlink" xmlns:svgjs="http://svgjs.com/svgjs" width="1440" height="560" preserveAspectRatio="none" viewBox="0 0 1440 560" opacity='0.2'>
    <g mask="url(&quot;#SvgjsMask1006&quot;)" fill="none">
        <path d="M65.51 44.84L107.08 68.84L107.08 116.84L65.51 140.84L23.94 116.84L23.94 68.84zM65.51 188.84L107.08 212.84L107.08 260.84L65.51 284.84L23.94 260.84L23.94 212.84zM65.51 332.84L107.08 356.84L107.08 404.84L65.51 428.84L23.94 404.84L23.94 356.84zM23.94 548.84L65.51 572.84L65.51 620.84L23.94 644.84L-17.63 620.84L-17.63 572.84zM107.08 -27.16L148.65 -3.16L148.65 44.84L107.08 68.84L65.51 44.84L65.51 -3.16zM107.08 116.84L148.65 140.84L148.65 188.84L107.08 212.84L65.51 188.84L65.51 140.84zM148.65 188.84L190.22 212.84L190.22 260.84L148.65 284.84L107.08 260.84L107.08 212.84zM190.22 -27.16L231.79 -3.16L231.79 44.84L190.22 68.84L148.65 44.84L148.65 -3.16zM190.22 116.84L231.79 140.84L231.79 188.84L190.22 212.84L148.65 188.84L148.65 140.84zM231.79 188.84L273.36 212.84L273.36 260.84L231.79 284.84L190.22 260.84L190.22 212.84zM231.79 476.84L273.36 500.84L273.36 548.84L231.79 572.84L190.22 548.84L190.22 500.84zM273.36 -27.16L314.93 -3.16L314.93 44.84L273.36 68.84L231.79 44.84L231.79 -3.16zM273.36 260.84L314.93 284.84L314.93 332.84L273.36 356.84L231.79 332.84L231.79 284.84zM314.93 332.84L356.5 356.84L356.5 404.84L314.93 428.84L273.36 404.84L273.36 356.84zM398.07 44.84L439.64 68.84L439.64 116.84L398.07 140.84L356.5 116.84L356.5 68.84zM398.07 332.84L439.64 356.84L439.64 404.84L398.07 428.84L356.5 404.84L356.5 356.84zM398.07 476.84L439.64 500.84L439.64 548.84L398.07 572.84L356.5 548.84L356.5 500.84zM439.64 116.84L481.21 140.84L481.21 188.84L439.64 212.84L398.07 188.84L398.07 140.84zM481.21 188.84L522.78 212.84L522.78 260.84L481.21 284.84L439.64 260.84L439.64 212.84zM481.21 476.84L522.78 500.84L522.78 548.84L481.21 572.84L439.64 548.84L439.64 500.84zM439.64 548.84L481.21 572.84L481.21 620.84L439.64 644.84L398.07 620.84L398.07 572.84zM564.36 476.84L605.93 500.84L605.93 548.84L564.36 572.84L522.78 548.84L522.78 500.84zM522.78 548.84L564.36 572.84L564.36 620.84L522.78 644.84L481.21 620.84L481.21 572.84zM647.5 44.84L689.07 68.84L689.07 116.84L647.5 140.84L605.93 116.84L605.93 68.84zM605.93 116.84L647.5 140.84L647.5 188.84L605.93 212.84L564.36 188.84L564.36 140.84zM647.5 188.84L689.07 212.84L689.07 260.84L647.5 284.84L605.93 260.84L605.93 212.84zM605.93 260.84L647.5 284.84L647.5 332.84L605.93 356.84L564.36 332.84L564.36 284.84zM647.5 332.84L689.07 356.84L689.07 404.84L647.5 428.84L605.93 404.84L605.93 356.84zM647.5 476.84L689.07 500.84L689.07 548.84L647.5 572.84L605.93 548.84L605.93 500.84zM605.93 548.84L647.5 572.84L647.5 620.84L605.93 644.84L564.36 620.84L564.36 572.84zM689.07 -27.16L730.64 -3.16L730.64 44.84L689.07 68.84L647.5 44.84L647.5 -3.16zM689.07 260.84L730.64 284.84L730.64 332.84L689.07 356.84L647.5 332.84L647.5 284.84zM730.64 476.84L772.21 500.84L772.21 548.84L730.64 572.84L689.07 548.84L689.07 500.84zM813.78 332.84L855.35 356.84L855.35 404.84L813.78 428.84L772.21 404.84L772.21 356.84zM772.21 404.84L813.78 428.84L813.78 476.84L772.21 500.84L730.64 476.84L730.64 428.84zM813.78 476.84L855.35 500.84L855.35 548.84L813.78 572.84L772.21 548.84L772.21 500.84zM772.21 548.84L813.78 572.84L813.78 620.84L772.21 644.84L730.64 620.84L730.64 572.84zM855.35 116.84L896.92 140.84L896.92 188.84L855.35 212.84L813.78 188.84L813.78 140.84zM896.92 332.84L938.49 356.84L938.49 404.84L896.92 428.84L855.35 404.84L855.35 356.84zM855.35 404.84L896.92 428.84L896.92 476.84L855.35 500.84L813.78 476.84L813.78 428.84zM855.35 548.84L896.92 572.84L896.92 620.84L855.35 644.84L813.78 620.84L813.78 572.84zM938.49 -27.16L980.06 -3.16L980.06 44.84L938.49 68.84L896.92 44.84L896.92 -3.16zM980.06 44.84L1021.63 68.84L1021.63 116.84L980.06 140.84L938.49 116.84L938.49 68.84zM980.06 188.84L1021.63 212.84L1021.63 260.84L980.06 284.84L938.49 260.84L938.49 212.84zM980.06 332.84L1021.63 356.84L1021.63 404.84L980.06 428.84L938.49 404.84L938.49 356.84zM1021.63 -27.16L1063.2 -3.16L1063.2 44.84L1021.63 68.84L980.06 44.84L980.06 -3.16zM1063.2 188.84L1104.77 212.84L1104.77 260.84L1063.2 284.84L1021.63 260.84L1021.63 212.84zM1063.2 476.84L1104.77 500.84L1104.77 548.84L1063.2 572.84L1021.63 548.84L1021.63 500.84zM1146.34 188.84L1187.91 212.84L1187.91 260.84L1146.34 284.84L1104.77 260.84L1104.77 212.84zM1104.77 260.84L1146.34 284.84L1146.34 332.84L1104.77 356.84L1063.2 332.84L1063.2 284.84zM1104.77 404.84L1146.34 428.84L1146.34 476.84L1104.77 500.84L1063.2 476.84L1063.2 428.84zM1229.48 44.84L1271.05 68.84L1271.05 116.84L1229.48 140.84L1187.91 116.84L1187.91 68.84zM1187.91 116.84L1229.48 140.84L1229.48 188.84L1187.91 212.84L1146.34 188.84L1146.34 140.84zM1229.48 188.84L1271.05 212.84L1271.05 260.84L1229.48 284.84L1187.91 260.84L1187.91 212.84zM1187.91 260.84L1229.48 284.84L1229.48 332.84L1187.91 356.84L1146.34 332.84L1146.34 284.84zM1187.91 548.84L1229.48 572.84L1229.48 620.84L1187.91 644.84L1146.34 620.84L1146.34 572.84zM1312.62 44.84L1354.19 68.84L1354.19 116.84L1312.62 140.84L1271.05 116.84L1271.05 68.84zM1312.62 188.84L1354.19 212.84L1354.19 260.84L1312.62 284.84L1271.05 260.84L1271.05 212.84zM1312.62 476.84L1354.19 500.84L1354.19 548.84L1312.62 572.84L1271.05 548.84L1271.05 500.84zM1354.19 -27.16L1395.76 -3.16L1395.76 44.84L1354.19 68.84L1312.62 44.84L1312.62 -3.16zM1354.19 116.84L1395.76 140.84L1395.76 188.84L1354.19 212.84L1312.62 188.84L1312.62 140.84zM1395.76 332.84L1437.33 356.84L1437.33 404.84L1395.76 428.84L1354.19 404.84L1354.19 356.84zM1354.19 548.84L1395.76 572.84L1395.76 620.84L1354.19 644.84L1312.62 620.84L1312.62 572.84zM1478.9 44.84L1520.47 68.84L1520.47 116.84L1478.9 140.84L1437.33 116.84L1437.33 68.84zM1437.33 260.84L1478.9 284.84L1478.9 332.84L1437.33 356.84L1395.76 332.84L1395.76 284.84z" stroke="rgba(155, 156, 162, 1)" stroke-width="2"></path>
        <path d="M60.71 44.84 a4.8 4.8 0 1 0 9.6 0 a4.8 4.8 0 1 0 -9.6 0zM102.28 68.84 a4.8 4.8 0 1 0 9.6 0 a4.8 4.8 0 1 0 -9.6 0zM102.28 116.84 a4.8 4.8 0 1 0 9.6 0 a4.8 4.8 0 1 0 -9.6 0zM60.71 140.84 a4.8 4.8 0 1 0 9.6 0 a4.8 4.8 0 1 0 -9.6 0zM19.14 116.84 a4.8 4.8 0 1 0 9.6 0 a4.8 4.8 0 1 0 -9.6 0zM19.14 68.84 a4.8 4.8 0 1 0 9.6 0 a4.8 4.8 0 1 0 -9.6 0zM60.71 188.84 a4.8 4.8 0 1 0 9.6 0 a4.8 4.8 0 1 0 -9.6 0zM102.28 212.84 a4.8 4.8 0 1 0 9.6 0 a4.8 4.8 0 1 0 -9.6 0zM102.28 260.84 a4.8 4.8 0 1 0 9.6 0 a4.8 4.8 0 1 0 -9.6 0zM60.71 284.84 a4.8 4.8 0 1 0 9.6 0 a4.8 4.8 0 1 0 -9.6 0zM19.14 260.84 a4.8 4.8 0 1 0 9.6 0 a4.8 4.8 0 1 0 -9.6 0zM19.14 212.84 a4.8 4.8 0 1 0 9.6 0 a4.8 4.8 0 1 0 -9.6 0zM60.71 332.84 a4.8 4.8 0 1 0 9.6 0 a4.8 4.8 0 1 0 -9.6 0zM102.28 356.84 a4.8 4.8 0 1 0 9.6 0 a4.8 4.8 0 1 0 -9.6 0zM102.28 404.84 a4.8 4.8 0 1 0 9.6 0 a4.8 4.8 0 1 0 -9.6 0zM60.71 428.84 a4.8 4.8 0 1 0 9.6 0 a4.8 4.8 0 1 0 -9.6 0zM19.14 404.84 a4.8 4.8 0 1 0 9.6 0 a4.8 4.8 0 1 0 -9.6 0zM19.14 356.84 a4.8 4.8 0 1 0 9.6 0 a4.8 4.8 0 1 0 -9.6 0zM19.14 548.84 a4.8 4.8 0 1 0 9.6 0 a4.8 4.8 0 1 0 -9.6 0zM60.71 572.84 a4.8 4.8 0 1 0 9.6 0 a4.8 4.8 0 1 0 -9.6 0zM60.71 620.84 a4.8 4.8 0 1 0 9.6 0 a4.8 4.8 0 1 0 -9.6 0zM19.14 644.84 a4.8 4.8 0 1 0 9.6 0 a4.8 4.8 0 1 0 -9.6 0zM-22.43 620.84 a4.8 4.8 0 1 0 9.6 0 a4.8 4.8 0 1 0 -9.6 0zM-22.43 572.84 a4.8 4.8 0 1 0 9.6 0 a4.8 4.8 0 1 0 -9.6 0zM102.28 -27.16 a4.8 4.8 0 1 0 9.6 0 a4.8 4.8 0 1 0 -9.6 0zM143.85 -3.16 a4.8 4.8 0 1 0 9.6 0 a4.8 4.8 0 1 0 -9.6 0zM143.85 44.84 a4.8 4.8 0 1 0 9.6 0 a4.8 4.8 0 1 0 -9.6 0zM60.71 -3.16 a4.8 4.8 0 1 0 9.6 0 a4.8 4.8 0 1 0 -9.6 0zM143.85 140.84 a4.8 4.8 0 1 0 9.6 0 a4.8 4.8 0 1 0 -9.6 0zM143.85 188.84 a4.8 4.8 0 1 0 9.6 0 a4.8 4.8 0 1 0 -9.6 0zM185.42 212.84 a4.8 4.8 0 1 0 9.6 0 a4.8 4.8 0 1 0 -9.6 0zM185.42 260.84 a4.8 4.8 0 1 0 9.6 0 a4.8 4.8 0 1 0 -9.6 0zM143.85 284.84 a4.8 4.8 0 1 0 9.6 0 a4.8 4.8 0 1 0 -9.6 0zM185.42 -27.16 a4.8 4.8 0 1 0 9.6 0 a4.8 4.8 0 1 0 -9.6 0zM226.99 -3.16 a4.8 4.8 0 1 0 9.6 0 a4.8 4.8 0 1 0 -9.6 0zM226.99 44.84 a4.8 4.8 0 1 0 9.6 0 a4.8 4.8 0 1 0 -9.6 0zM185.42 68.84 a4.8 4.8 0 1 0 9.6 0 a4.8 4.8 0 1 0 -9.6 0zM185.42 116.84 a4.8 4.8 0 1 0 9.6 0 a4.8 4.8 0 1 0 -9.6 0zM226.99 140.84 a4.8 4.8 0 1 0 9.6 0 a4.8 4.8 0 1 0 -9.6 0zM226.99 188.84 a4.8 4.8 0 1 0 9.6 0 a4.8 4.8 0 1 0 -9.6 0zM268.56 212.84 a4.8 4.8 0 1 0 9.6 0 a4.8 4.8 0 1 0 -9.6 0zM268.56 260.84 a4.8 4.8 0 1 0 9.6 0 a4.8 4.8 0 1 0 -9.6 0zM226.99 284.84 a4.8 4.8 0 1 0 9.6 0 a4.8 4.8 0 1 0 -9.6 0zM226.99 476.84 a4.8 4.8 0 1 0 9.6 0 a4.8 4.8 0 1 0 -9.6 0zM268.56 500.84 a4.8 4.8 0 1 0 9.6 0 a4.8 4.8 0 1 0 -9.6 0zM268.56 548.84 a4.8 4.8 0 1 0 9.6 0 a4.8 4.8 0 1 0 -9.6 0zM226.99 572.84 a4.8 4.8 0 1 0 9.6 0 a4.8 4.8 0 1 0 -9.6 0zM185.42 548.84 a4.8 4.8 0 1 0 9.6 0 a4.8 4.8 0 1 0 -9.6 0zM185.42 500.84 a4.8 4.8 0 1 0 9.6 0 a4.8 4.8 0 1 0 -9.6 0zM268.56 -27.16 a4.8 4.8 0 1 0 9.6 0 a4.8 4.8 0 1 0 -9.6 0zM310.13 -3.16 a4.8 4.8 0 1 0 9.6 0 a4.8 4.8 0 1 0 -9.6 0zM310.13 44.84 a4.8 4.8 0 1 0 9.6 0 a4.8 4.8 0 1 0 -9.6 0zM268.56 68.84 a4.8 4.8 0 1 0 9.6 0 a4.8 4.8 0 1 0 -9.6 0zM310.13 284.84 a4.8 4.8 0 1 0 9.6 0 a4.8 4.8 0 1 0 -9.6 0zM310.13 332.84 a4.8 4.8 0 1 0 9.6 0 a4.8 4.8 0 1 0 -9.6 0zM268.56 356.84 a4.8 4.8 0 1 0 9.6 0 a4.8 4.8 0 1 0 -9.6 0zM226.99 332.84 a4.8 4.8 0 1 0 9.6 0 a4.8 4.8 0 1 0 -9.6 0zM351.7 356.84 a4.8 4.8 0 1 0 9.6 0 a4.8 4.8 0 1 0 -9.6 0zM351.7 404.84 a4.8 4.8 0 1 0 9.6 0 a4.8 4.8 0 1 0 -9.6 0zM310.13 428.84 a4.8 4.8 0 1 0 9.6 0 a4.8 4.8 0 1 0 -9.6 0zM268.56 404.84 a4.8 4.8 0 1 0 9.6 0 a4.8 4.8 0 1 0 -9.6 0zM393.27 44.84 a4.8 4.8 0 1 0 9.6 0 a4.8 4.8 0 1 0 -9.6 0zM434.84 68.84 a4.8 4.8 0 1 0 9.6 0 a4.8 4.8 0 1 0 -9.6 0zM434.84 116.84 a4.8 4.8 0 1 0 9.6 0 a4.8 4.8 0 1 0 -9.6 0zM393.27 140.84 a4.8 4.8 0 1 0 9.6 0 a4.8 4.8 0 1 0 -9.6 0zM351.7 116.84 a4.8 4.8 0 1 0 9.6 0 a4.8 4.8 0 1 0 -9.6 0zM351.7 68.84 a4.8 4.8 0 1 0 9.6 0 a4.8 4.8 0 1 0 -9.6 0zM393.27 332.84 a4.8 4.8 0 1 0 9.6 0 a4.8 4.8 0 1 0 -9.6 0zM434.84 356.84 a4.8 4.8 0 1 0 9.6 0 a4.8 4.8 0 1 0 -9.6 0zM434.84 404.84 a4.8 4.8 0 1 0 9.6 0 a4.8 4.8 0 1 0 -9.6 0zM393.27 428.84 a4.8 4.8 0 1 0 9.6 0 a4.8 4.8 0 1 0 -9.6 0zM393.27 476.84 a4.8 4.8 0 1 0 9.6 0 a4.8 4.8 0 1 0 -9.6 0zM434.84 500.84 a4.8 4.8 0 1 0 9.6 0 a4.8 4.8 0 1 0 -9.6 0zM434.84 548.84 a4.8 4.8 0 1 0 9.6 0 a4.8 4.8 0 1 0 -9.6 0zM393.27 572.84 a4.8 4.8 0 1 0 9.6 0 a4.8 4.8 0 1 0 -9.6 0zM351.7 548.84 a4.8 4.8 0 1 0 9.6 0 a4.8 4.8 0 1 0 -9.6 0zM351.7 500.84 a4.8 4.8 0 1 0 9.6 0 a4.8 4.8 0 1 0 -9.6 0zM476.41 140.84 a4.8 4.8 0 1 0 9.6 0 a4.8 4.8 0 1 0 -9.6 0zM476.41 188.84 a4.8 4.8 0 1 0 9.6 0 a4.8 4.8 0 1 0 -9.6 0zM434.84 212.84 a4.8 4.8 0 1 0 9.6 0 a4.8 4.8 0 1 0 -9.6 0zM393.27 188.84 a4.8 4.8 0 1 0 9.6 0 a4.8 4.8 0 1 0 -9.6 0zM517.98 212.84 a4.8 4.8 0 1 0 9.6 0 a4.8 4.8 0 1 0 -9.6 0zM517.98 260.84 a4.8 4.8 0 1 0 9.6 0 a4.8 4.8 0 1 0 -9.6 0zM476.41 284.84 a4.8 4.8 0 1 0 9.6 0 a4.8 4.8 0 1 0 -9.6 0zM434.84 260.84 a4.8 4.8 0 1 0 9.6 0 a4.8 4.8 0 1 0 -9.6 0zM476.41 476.84 a4.8 4.8 0 1 0 9.6 0 a4.8 4.8 0 1 0 -9.6 0zM517.98 500.84 a4.8 4.8 0 1 0 9.6 0 a4.8 4.8 0 1 0 -9.6 0zM517.98 548.84 a4.8 4.8 0 1 0 9.6 0 a4.8 4.8 0 1 0 -9.6 0zM476.41 572.84 a4.8 4.8 0 1 0 9.6 0 a4.8 4.8 0 1 0 -9.6 0zM476.41 620.84 a4.8 4.8 0 1 0 9.6 0 a4.8 4.8 0 1 0 -9.6 0zM434.84 644.84 a4.8 4.8 0 1 0 9.6 0 a4.8 4.8 0 1 0 -9.6 0zM393.27 620.84 a4.8 4.8 0 1 0 9.6 0 a4.8 4.8 0 1 0 -9.6 0zM559.56 476.84 a4.8 4.8 0 1 0 9.6 0 a4.8 4.8 0 1 0 -9.6 0zM601.13 500.84 a4.8 4.8 0 1 0 9.6 0 a4.8 4.8 0 1 0 -9.6 0zM601.13 548.84 a4.8 4.8 0 1 0 9.6 0 a4.8 4.8 0 1 0 -9.6 0zM559.56 572.84 a4.8 4.8 0 1 0 9.6 0 a4.8 4.8 0 1 0 -9.6 0zM559.56 620.84 a4.8 4.8 0 1 0 9.6 0 a4.8 4.8 0 1 0 -9.6 0zM517.98 644.84 a4.8 4.8 0 1 0 9.6 0 a4.8 4.8 0 1 0 -9.6 0zM642.7 44.84 a4.8 4.8 0 1 0 9.6 0 a4.8 4.8 0 1 0 -9.6 0zM684.27 68.84 a4.8 4.8 0 1 0 9.6 0 a4.8 4.8 0 1 0 -9.6 0zM684.27 116.84 a4.8 4.8 0 1 0 9.6 0 a4.8 4.8 0 1 0 -9.6 0zM642.7 140.84 a4.8 4.8 0 1 0 9.6 0 a4.8 4.8 0 1 0 -9.6 0zM601.13 116.84 a4.8 4.8 0 1 0 9.6 0 a4.8 4.8 0 1 0 -9.6 0zM601.13 68.84 a4.8 4.8 0 1 0 9.6 0 a4.8 4.8 0 1 0 -9.6 0zM642.7 188.84 a4.8 4.8 0 1 0 9.6 0 a4.8 4.8 0 1 0 -9.6 0zM601.13 212.84 a4.8 4.8 0 1 0 9.6 0 a4.8 4.8 0 1 0 -9.6 0zM559.56 188.84 a4.8 4.8 0 1 0 9.6 0 a4.8 4.8 0 1 0 -9.6 0zM559.56 140.84 a4.8 4.8 0 1 0 9.6 0 a4.8 4.8 0 1 0 -9.6 0zM684.27 212.84 a4.8 4.8 0 1 0 9.6 0 a4.8 4.8 0 1 0 -9.6 0zM684.27 260.84 a4.8 4.8 0 1 0 9.6 0 a4.8 4.8 0 1 0 -9.6 0zM642.7 284.84 a4.8 4.8 0 1 0 9.6 0 a4.8 4.8 0 1 0 -9.6 0zM601.13 260.84 a4.8 4.8 0 1 0 9.6 0 a4.8 4.8 0 1 0 -9.6 0zM642.7 332.84 a4.8 4.8 0 1 0 9.6 0 a4.8 4.8 0 1 0 -9.6 0zM601.13 356.84 a4.8 4.8 0 1 0 9.6 0 a4.8 4.8 0 1 0 -9.6 0zM559.56 332.84 a4.8 4.8 0 1 0 9.6 0 a4.8 4.8 0 1 0 -9.6 0zM559.56 284.84 a4.8 4.8 0 1 0 9.6 0 a4.8 4.8 0 1 0 -9.6 0zM684.27 356.84 a4.8 4.8 0 1 0 9.6 0 a4.8 4.8 0 1 0 -9.6 0zM684.27 404.84 a4.8 4.8 0 1 0 9.6 0 a4.8 4.8 0 1 0 -9.6 0zM642.7 428.84 a4.8 4.8 0 1 0 9.6 0 a4.8 4.8 0 1 0 -9.6 0zM601.13 404.84 a4.8 4.8 0 1 0 9.6 0 a4.8 4.8 0 1 0 -9.6 0zM642.7 476.84 a4.8 4.8 0 1 0 9.6 0 a4.8 4.8 0 1 0 -9.6 0zM684.27 500.84 a4.8 4.8 0 1 0 9.6 0 a4.8 4.8 0 1 0 -9.6 0zM684.27 548.84 a4.8 4.8 0 1 0 9.6 0 a4.8 4.8 0 1 0 -9.6 0zM642.7 572.84 a4.8 4.8 0 1 0 9.6 0 a4.8 4.8 0 1 0 -9.6 0zM642.7 620.84 a4.8 4.8 0 1 0 9.6 0 a4.8 4.8 0 1 0 -9.6 0zM601.13 644.84 a4.8 4.8 0 1 0 9.6 0 a4.8 4.8 0 1 0 -9.6 0zM684.27 -27.16 a4.8 4.8 0 1 0 9.6 0 a4.8 4.8 0 1 0 -9.6 0zM725.84 -3.16 a4.8 4.8 0 1 0 9.6 0 a4.8 4.8 0 1 0 -9.6 0zM725.84 44.84 a4.8 4.8 0 1 0 9.6 0 a4.8 4.8 0 1 0 -9.6 0zM642.7 -3.16 a4.8 4.8 0 1 0 9.6 0 a4.8 4.8 0 1 0 -9.6 0zM725.84 284.84 a4.8 4.8 0 1 0 9.6 0 a4.8 4.8 0 1 0 -9.6 0zM725.84 332.84 a4.8 4.8 0 1 0 9.6 0 a4.8 4.8 0 1 0 -9.6 0zM725.84 476.84 a4.8 4.8 0 1 0 9.6 0 a4.8 4.8 0 1 0 -9.6 0zM767.41 500.84 a4.8 4.8 0 1 0 9.6 0 a4.8 4.8 0 1 0 -9.6 0zM767.41 548.84 a4.8 4.8 0 1 0 9.6 0 a4.8 4.8 0 1 0 -9.6 0zM725.84 572.84 a4.8 4.8 0 1 0 9.6 0 a4.8 4.8 0 1 0 -9.6 0zM808.98 332.84 a4.8 4.8 0 1 0 9.6 0 a4.8 4.8 0 1 0 -9.6 0zM850.55 356.84 a4.8 4.8 0 1 0 9.6 0 a4.8 4.8 0 1 0 -9.6 0zM850.55 404.84 a4.8 4.8 0 1 0 9.6 0 a4.8 4.8 0 1 0 -9.6 0zM808.98 428.84 a4.8 4.8 0 1 0 9.6 0 a4.8 4.8 0 1 0 -9.6 0zM767.41 404.84 a4.8 4.8 0 1 0 9.6 0 a4.8 4.8 0 1 0 -9.6 0zM767.41 356.84 a4.8 4.8 0 1 0 9.6 0 a4.8 4.8 0 1 0 -9.6 0zM808.98 476.84 a4.8 4.8 0 1 0 9.6 0 a4.8 4.8 0 1 0 -9.6 0zM725.84 428.84 a4.8 4.8 0 1 0 9.6 0 a4.8 4.8 0 1 0 -9.6 0zM850.55 500.84 a4.8 4.8 0 1 0 9.6 0 a4.8 4.8 0 1 0 -9.6 0zM850.55 548.84 a4.8 4.8 0 1 0 9.6 0 a4.8 4.8 0 1 0 -9.6 0zM808.98 572.84 a4.8 4.8 0 1 0 9.6 0 a4.8 4.8 0 1 0 -9.6 0zM808.98 620.84 a4.8 4.8 0 1 0 9.6 0 a4.8 4.8 0 1 0 -9.6 0zM767.41 644.84 a4.8 4.8 0 1 0 9.6 0 a4.8 4.8 0 1 0 -9.6 0zM725.84 620.84 a4.8 4.8 0 1 0 9.6 0 a4.8 4.8 0 1 0 -9.6 0zM850.55 116.84 a4.8 4.8 0 1 0 9.6 0 a4.8 4.8 0 1 0 -9.6 0zM892.12 140.84 a4.8 4.8 0 1 0 9.6 0 a4.8 4.8 0 1 0 -9.6 0zM892.12 188.84 a4.8 4.8 0 1 0 9.6 0 a4.8 4.8 0 1 0 -9.6 0zM850.55 212.84 a4.8 4.8 0 1 0 9.6 0 a4.8 4.8 0 1 0 -9.6 0zM808.98 188.84 a4.8 4.8 0 1 0 9.6 0 a4.8 4.8 0 1 0 -9.6 0zM808.98 140.84 a4.8 4.8 0 1 0 9.6 0 a4.8 4.8 0 1 0 -9.6 0zM892.12 332.84 a4.8 4.8 0 1 0 9.6 0 a4.8 4.8 0 1 0 -9.6 0zM933.69 356.84 a4.8 4.8 0 1 0 9.6 0 a4.8 4.8 0 1 0 -9.6 0zM933.69 404.84 a4.8 4.8 0 1 0 9.6 0 a4.8 4.8 0 1 0 -9.6 0zM892.12 428.84 a4.8 4.8 0 1 0 9.6 0 a4.8 4.8 0 1 0 -9.6 0zM892.12 476.84 a4.8 4.8 0 1 0 9.6 0 a4.8 4.8 0 1 0 -9.6 0zM892.12 572.84 a4.8 4.8 0 1 0 9.6 0 a4.8 4.8 0 1 0 -9.6 0zM892.12 620.84 a4.8 4.8 0 1 0 9.6 0 a4.8 4.8 0 1 0 -9.6 0zM850.55 644.84 a4.8 4.8 0 1 0 9.6 0 a4.8 4.8 0 1 0 -9.6 0zM933.69 -27.16 a4.8 4.8 0 1 0 9.6 0 a4.8 4.8 0 1 0 -9.6 0zM975.26 -3.16 a4.8 4.8 0 1 0 9.6 0 a4.8 4.8 0 1 0 -9.6 0zM975.26 44.84 a4.8 4.8 0 1 0 9.6 0 a4.8 4.8 0 1 0 -9.6 0zM933.69 68.84 a4.8 4.8 0 1 0 9.6 0 a4.8 4.8 0 1 0 -9.6 0zM892.12 44.84 a4.8 4.8 0 1 0 9.6 0 a4.8 4.8 0 1 0 -9.6 0zM892.12 -3.16 a4.8 4.8 0 1 0 9.6 0 a4.8 4.8 0 1 0 -9.6 0zM1016.83 68.84 a4.8 4.8 0 1 0 9.6 0 a4.8 4.8 0 1 0 -9.6 0zM1016.83 116.84 a4.8 4.8 0 1 0 9.6 0 a4.8 4.8 0 1 0 -9.6 0zM975.26 140.84 a4.8 4.8 0 1 0 9.6 0 a4.8 4.8 0 1 0 -9.6 0zM933.69 116.84 a4.8 4.8 0 1 0 9.6 0 a4.8 4.8 0 1 0 -9.6 0zM975.26 188.84 a4.8 4.8 0 1 0 9.6 0 a4.8 4.8 0 1 0 -9.6 0zM1016.83 212.84 a4.8 4.8 0 1 0 9.6 0 a4.8 4.8 0 1 0 -9.6 0zM1016.83 260.84 a4.8 4.8 0 1 0 9.6 0 a4.8 4.8 0 1 0 -9.6 0zM975.26 284.84 a4.8 4.8 0 1 0 9.6 0 a4.8 4.8 0 1 0 -9.6 0zM933.69 260.84 a4.8 4.8 0 1 0 9.6 0 a4.8 4.8 0 1 0 -9.6 0zM933.69 212.84 a4.8 4.8 0 1 0 9.6 0 a4.8 4.8 0 1 0 -9.6 0zM975.26 332.84 a4.8 4.8 0 1 0 9.6 0 a4.8 4.8 0 1 0 -9.6 0zM1016.83 356.84 a4.8 4.8 0 1 0 9.6 0 a4.8 4.8 0 1 0 -9.6 0zM1016.83 404.84 a4.8 4.8 0 1 0 9.6 0 a4.8 4.8 0 1 0 -9.6 0zM975.26 428.84 a4.8 4.8 0 1 0 9.6 0 a4.8 4.8 0 1 0 -9.6 0zM1016.83 -27.16 a4.8 4.8 0 1 0 9.6 0 a4.8 4.8 0 1 0 -9.6 0zM1058.4 -3.16 a4.8 4.8 0 1 0 9.6 0 a4.8 4.8 0 1 0 -9.6 0zM1058.4 44.84 a4.8 4.8 0 1 0 9.6 0 a4.8 4.8 0 1 0 -9.6 0zM1058.4 188.84 a4.8 4.8 0 1 0 9.6 0 a4.8 4.8 0 1 0 -9.6 0zM1099.97 212.84 a4.8 4.8 0 1 0 9.6 0 a4.8 4.8 0 1 0 -9.6 0zM1099.97 260.84 a4.8 4.8 0 1 0 9.6 0 a4.8 4.8 0 1 0 -9.6 0zM1058.4 284.84 a4.8 4.8 0 1 0 9.6 0 a4.8 4.8 0 1 0 -9.6 0zM1058.4 476.84 a4.8 4.8 0 1 0 9.6 0 a4.8 4.8 0 1 0 -9.6 0zM1099.97 500.84 a4.8 4.8 0 1 0 9.6 0 a4.8 4.8 0 1 0 -9.6 0zM1099.97 548.84 a4.8 4.8 0 1 0 9.6 0 a4.8 4.8 0 1 0 -9.6 0zM1058.4 572.84 a4.8 4.8 0 1 0 9.6 0 a4.8 4.8 0 1 0 -9.6 0zM1016.83 548.84 a4.8 4.8 0 1 0 9.6 0 a4.8 4.8 0 1 0 -9.6 0zM1016.83 500.84 a4.8 4.8 0 1 0 9.6 0 a4.8 4.8 0 1 0 -9.6 0zM1141.54 188.84 a4.8 4.8 0 1 0 9.6 0 a4.8 4.8 0 1 0 -9.6 0zM1183.11 212.84 a4.8 4.8 0 1 0 9.6 0 a4.8 4.8 0 1 0 -9.6 0zM1183.11 260.84 a4.8 4.8 0 1 0 9.6 0 a4.8 4.8 0 1 0 -9.6 0zM1141.54 284.84 a4.8 4.8 0 1 0 9.6 0 a4.8 4.8 0 1 0 -9.6 0zM1141.54 332.84 a4.8 4.8 0 1 0 9.6 0 a4.8 4.8 0 1 0 -9.6 0zM1099.97 356.84 a4.8 4.8 0 1 0 9.6 0 a4.8 4.8 0 1 0 -9.6 0zM1058.4 332.84 a4.8 4.8 0 1 0 9.6 0 a4.8 4.8 0 1 0 -9.6 0zM1099.97 404.84 a4.8 4.8 0 1 0 9.6 0 a4.8 4.8 0 1 0 -9.6 0zM1141.54 428.84 a4.8 4.8 0 1 0 9.6 0 a4.8 4.8 0 1 0 -9.6 0zM1141.54 476.84 a4.8 4.8 0 1 0 9.6 0 a4.8 4.8 0 1 0 -9.6 0zM1058.4 428.84 a4.8 4.8 0 1 0 9.6 0 a4.8 4.8 0 1 0 -9.6 0zM1224.68 44.84 a4.8 4.8 0 1 0 9.6 0 a4.8 4.8 0 1 0 -9.6 0zM1266.25 68.84 a4.8 4.8 0 1 0 9.6 0 a4.8 4.8 0 1 0 -9.6 0zM1266.25 116.84 a4.8 4.8 0 1 0 9.6 0 a4.8 4.8 0 1 0 -9.6 0zM1224.68 140.84 a4.8 4.8 0 1 0 9.6 0 a4.8 4.8 0 1 0 -9.6 0zM1183.11 116.84 a4.8 4.8 0 1 0 9.6 0 a4.8 4.8 0 1 0 -9.6 0zM1183.11 68.84 a4.8 4.8 0 1 0 9.6 0 a4.8 4.8 0 1 0 -9.6 0zM1224.68 188.84 a4.8 4.8 0 1 0 9.6 0 a4.8 4.8 0 1 0 -9.6 0zM1141.54 140.84 a4.8 4.8 0 1 0 9.6 0 a4.8 4.8 0 1 0 -9.6 0zM1266.25 212.84 a4.8 4.8 0 1 0 9.6 0 a4.8 4.8 0 1 0 -9.6 0zM1266.25 260.84 a4.8 4.8 0 1 0 9.6 0 a4.8 4.8 0 1 0 -9.6 0zM1224.68 284.84 a4.8 4.8 0 1 0 9.6 0 a4.8 4.8 0 1 0 -9.6 0zM1224.68 332.84 a4.8 4.8 0 1 0 9.6 0 a4.8 4.8 0 1 0 -9.6 0zM1183.11 356.84 a4.8 4.8 0 1 0 9.6 0 a4.8 4.8 0 1 0 -9.6 0zM1183.11 548.84 a4.8 4.8 0 1 0 9.6 0 a4.8 4.8 0 1 0 -9.6 0zM1224.68 572.84 a4.8 4.8 0 1 0 9.6 0 a4.8 4.8 0 1 0 -9.6 0zM1224.68 620.84 a4.8 4.8 0 1 0 9.6 0 a4.8 4.8 0 1 0 -9.6 0zM1183.11 644.84 a4.8 4.8 0 1 0 9.6 0 a4.8 4.8 0 1 0 -9.6 0zM1141.54 620.84 a4.8 4.8 0 1 0 9.6 0 a4.8 4.8 0 1 0 -9.6 0zM1141.54 572.84 a4.8 4.8 0 1 0 9.6 0 a4.8 4.8 0 1 0 -9.6 0zM1307.82 44.84 a4.8 4.8 0 1 0 9.6 0 a4.8 4.8 0 1 0 -9.6 0zM1349.39 68.84 a4.8 4.8 0 1 0 9.6 0 a4.8 4.8 0 1 0 -9.6 0zM1349.39 116.84 a4.8 4.8 0 1 0 9.6 0 a4.8 4.8 0 1 0 -9.6 0zM1307.82 140.84 a4.8 4.8 0 1 0 9.6 0 a4.8 4.8 0 1 0 -9.6 0zM1307.82 188.84 a4.8 4.8 0 1 0 9.6 0 a4.8 4.8 0 1 0 -9.6 0zM1349.39 212.84 a4.8 4.8 0 1 0 9.6 0 a4.8 4.8 0 1 0 -9.6 0zM1349.39 260.84 a4.8 4.8 0 1 0 9.6 0 a4.8 4.8 0 1 0 -9.6 0zM1307.82 284.84 a4.8 4.8 0 1 0 9.6 0 a4.8 4.8 0 1 0 -9.6 0zM1307.82 476.84 a4.8 4.8 0 1 0 9.6 0 a4.8 4.8 0 1 0 -9.6 0zM1349.39 500.84 a4.8 4.8 0 1 0 9.6 0 a4.8 4.8 0 1 0 -9.6 0zM1349.39 548.84 a4.8 4.8 0 1 0 9.6 0 a4.8 4.8 0 1 0 -9.6 0zM1307.82 572.84 a4.8 4.8 0 1 0 9.6 0 a4.8 4.8 0 1 0 -9.6 0zM1266.25 548.84 a4.8 4.8 0 1 0 9.6 0 a4.8 4.8 0 1 0 -9.6 0zM1266.25 500.84 a4.8 4.8 0 1 0 9.6 0 a4.8 4.8 0 1 0 -9.6 0zM1349.39 -27.16 a4.8 4.8 0 1 0 9.6 0 a4.8 4.8 0 1 0 -9.6 0zM1390.96 -3.16 a4.8 4.8 0 1 0 9.6 0 a4.8 4.8 0 1 0 -9.6 0zM1390.96 44.84 a4.8 4.8 0 1 0 9.6 0 a4.8 4.8 0 1 0 -9.6 0zM1307.82 -3.16 a4.8 4.8 0 1 0 9.6 0 a4.8 4.8 0 1 0 -9.6 0zM1390.96 140.84 a4.8 4.8 0 1 0 9.6 0 a4.8 4.8 0 1 0 -9.6 0zM1390.96 188.84 a4.8 4.8 0 1 0 9.6 0 a4.8 4.8 0 1 0 -9.6 0zM1390.96 332.84 a4.8 4.8 0 1 0 9.6 0 a4.8 4.8 0 1 0 -9.6 0zM1432.53 356.84 a4.8 4.8 0 1 0 9.6 0 a4.8 4.8 0 1 0 -9.6 0zM1432.53 404.84 a4.8 4.8 0 1 0 9.6 0 a4.8 4.8 0 1 0 -9.6 0zM1390.96 428.84 a4.8 4.8 0 1 0 9.6 0 a4.8 4.8 0 1 0 -9.6 0zM1349.39 404.84 a4.8 4.8 0 1 0 9.6 0 a4.8 4.8 0 1 0 -9.6 0zM1349.39 356.84 a4.8 4.8 0 1 0 9.6 0 a4.8 4.8 0 1 0 -9.6 0zM1390.96 572.84 a4.8 4.8 0 1 0 9.6 0 a4.8 4.8 0 1 0 -9.6 0zM1390.96 620.84 a4.8 4.8 0 1 0 9.6 0 a4.8 4.8 0 1 0 -9.6 0zM1349.39 644.84 a4.8 4.8 0 1 0 9.6 0 a4.8 4.8 0 1 0 -9.6 0zM1307.82 620.84 a4.8 4.8 0 1 0 9.6 0 a4.8 4.8 0 1 0 -9.6 0zM1474.1 44.84 a4.8 4.8 0 1 0 9.6 0 a4.8 4.8 0 1 0 -9.6 0zM1515.67 68.84 a4.8 4.8 0 1 0 9.6 0 a4.8 4.8 0 1 0 -9.6 0zM1515.67 116.84 a4.8 4.8 0 1 0 9.6 0 a4.8 4.8 0 1 0 -9.6 0zM1474.1 140.84 a4.8 4.8 0 1 0 9.6 0 a4.8 4.8 0 1 0 -9.6 0zM1432.53 116.84 a4.8 4.8 0 1 0 9.6 0 a4.8 4.8 0 1 0 -9.6 0zM1432.53 68.84 a4.8 4.8 0 1 0 9.6 0 a4.8 4.8 0 1 0 -9.6 0zM1432.53 260.84 a4.8 4.8 0 1 0 9.6 0 a4.8 4.8 0 1 0 -9.6 0zM1474.1 284.84 a4.8 4.8 0 1 0 9.6 0 a4.8 4.8 0 1 0 -9.6 0zM1474.1 332.84 a4.8 4.8 0 1 0 9.6 0 a4.8 4.8 0 1 0 -9.6 0zM1390.96 284.84 a4.8 4.8 0 1 0 9.6 0 a4.8 4.8 0 1 0 -9.6 0z" fill="rgba(155, 156, 162, 1)"></path>
        <path d="M39.33 95.07L60.11 107.07L60.11 131.07L39.33 143.07L18.54 131.07L18.54 107.07zM18.54 347.07L39.33 359.07L39.33 383.07L18.54 395.07L-2.25 383.07L-2.25 359.07zM18.54 419.07L39.33 431.07L39.33 455.07L18.54 467.07L-2.25 455.07L-2.25 431.07zM60.11 59.07L80.9 71.07L80.9 95.07L60.11 107.07L39.33 95.07L39.33 71.07zM80.9 95.07L101.68 107.07L101.68 131.07L80.9 143.07L60.11 131.07L60.11 107.07zM60.11 203.07L80.9 215.07L80.9 239.07L60.11 251.07L39.33 239.07L39.33 215.07zM80.9 383.07L101.68 395.07L101.68 419.07L80.9 431.07L60.11 419.07L60.11 395.07zM60.11 419.07L80.9 431.07L80.9 455.07L60.11 467.07L39.33 455.07L39.33 431.07zM60.11 563.07L80.9 575.07L80.9 599.07L60.11 611.07L39.33 599.07L39.33 575.07zM122.47 23.07L143.25 35.07L143.25 59.07L122.47 71.07L101.68 59.07L101.68 35.07zM122.47 95.07L143.25 107.07L143.25 131.07L122.47 143.07L101.68 131.07L101.68 107.07zM101.68 419.07L122.47 431.07L122.47 455.07L101.68 467.07L80.9 455.07L80.9 431.07zM122.47 527.07L143.25 539.07L143.25 563.07L122.47 575.07L101.68 563.07L101.68 539.07zM101.68 563.07L122.47 575.07L122.47 599.07L101.68 611.07L80.9 599.07L80.9 575.07zM143.25 -12.93L164.04 -0.93L164.04 23.07L143.25 35.07L122.47 23.07L122.47 -0.93zM143.25 131.07L164.04 143.07L164.04 167.07L143.25 179.07L122.47 167.07L122.47 143.07zM143.25 275.07L164.04 287.07L164.04 311.07L143.25 323.07L122.47 311.07L122.47 287.07zM143.25 491.07L164.04 503.07L164.04 527.07L143.25 539.07L122.47 527.07L122.47 503.07zM205.61 23.07L226.39 35.07L226.39 59.07L205.61 71.07L184.82 59.07L184.82 35.07zM184.82 275.07L205.61 287.07L205.61 311.07L184.82 323.07L164.04 311.07L164.04 287.07zM205.61 455.07L226.39 467.07L226.39 491.07L205.61 503.07L184.82 491.07L184.82 467.07zM205.61 527.07L226.39 539.07L226.39 563.07L205.61 575.07L184.82 563.07L184.82 539.07zM184.82 563.07L205.61 575.07L205.61 599.07L184.82 611.07L164.04 599.07L164.04 575.07zM247.18 383.07L267.96 395.07L267.96 419.07L247.18 431.07L226.39 419.07L226.39 395.07zM226.39 419.07L247.18 431.07L247.18 455.07L226.39 467.07L205.61 455.07L205.61 431.07zM267.96 -12.93L288.75 -0.93L288.75 23.07L267.96 35.07L247.18 23.07L247.18 -0.93zM267.96 131.07L288.75 143.07L288.75 167.07L267.96 179.07L247.18 167.07L247.18 143.07zM288.75 167.07L309.53 179.07L309.53 203.07L288.75 215.07L267.96 203.07L267.96 179.07zM267.96 275.07L288.75 287.07L288.75 311.07L267.96 323.07L247.18 311.07L247.18 287.07zM288.75 311.07L309.53 323.07L309.53 347.07L288.75 359.07L267.96 347.07L267.96 323.07zM288.75 383.07L309.53 395.07L309.53 419.07L288.75 431.07L267.96 419.07L267.96 395.07zM267.96 419.07L288.75 431.07L288.75 455.07L267.96 467.07L247.18 455.07L247.18 431.07zM330.32 95.07L351.1 107.07L351.1 131.07L330.32 143.07L309.53 131.07L309.53 107.07zM309.53 131.07L330.32 143.07L330.32 167.07L309.53 179.07L288.75 167.07L288.75 143.07zM330.32 167.07L351.1 179.07L351.1 203.07L330.32 215.07L309.53 203.07L309.53 179.07zM309.53 491.07L330.32 503.07L330.32 527.07L309.53 539.07L288.75 527.07L288.75 503.07zM351.1 -12.93L371.89 -0.93L371.89 23.07L351.1 35.07L330.32 23.07L330.32 -0.93zM351.1 59.07L371.89 71.07L371.89 95.07L351.1 107.07L330.32 95.07L330.32 71.07zM371.89 167.07L392.67 179.07L392.67 203.07L371.89 215.07L351.1 203.07L351.1 179.07zM371.89 455.07L392.67 467.07L392.67 491.07L371.89 503.07L351.1 491.07L351.1 467.07zM413.46 383.07L434.24 395.07L434.24 419.07L413.46 431.07L392.67 419.07L392.67 395.07zM413.46 455.07L434.24 467.07L434.24 491.07L413.46 503.07L392.67 491.07L392.67 467.07zM392.67 563.07L413.46 575.07L413.46 599.07L392.67 611.07L371.89 599.07L371.89 575.07zM455.03 95.07L475.81 107.07L475.81 131.07L455.03 143.07L434.24 131.07L434.24 107.07zM455.03 167.07L475.81 179.07L475.81 203.07L455.03 215.07L434.24 203.07L434.24 179.07zM455.03 311.07L475.81 323.07L475.81 347.07L455.03 359.07L434.24 347.07L434.24 323.07zM434.24 347.07L455.03 359.07L455.03 383.07L434.24 395.07L413.46 383.07L413.46 359.07zM496.6 167.07L517.38 179.07L517.38 203.07L496.6 215.07L475.81 203.07L475.81 179.07zM475.81 203.07L496.6 215.07L496.6 239.07L475.81 251.07L455.03 239.07L455.03 215.07zM475.81 275.07L496.6 287.07L496.6 311.07L475.81 323.07L455.03 311.07L455.03 287.07zM475.81 563.07L496.6 575.07L496.6 599.07L475.81 611.07L455.03 599.07L455.03 575.07zM517.38 -12.93L538.17 -0.93L538.17 23.07L517.38 35.07L496.6 23.07L496.6 -0.93zM517.38 59.07L538.17 71.07L538.17 95.07L517.38 107.07L496.6 95.07L496.6 71.07zM517.38 203.07L538.17 215.07L538.17 239.07L517.38 251.07L496.6 239.07L496.6 215.07zM538.17 239.07L558.96 251.07L558.96 275.07L538.17 287.07L517.38 275.07L517.38 251.07zM517.38 491.07L538.17 503.07L538.17 527.07L517.38 539.07L496.6 527.07L496.6 503.07zM538.17 527.07L558.96 539.07L558.96 563.07L538.17 575.07L517.38 563.07L517.38 539.07zM558.96 -12.93L579.74 -0.93L579.74 23.07L558.96 35.07L538.17 23.07L538.17 -0.93zM579.74 23.07L600.53 35.07L600.53 59.07L579.74 71.07L558.96 59.07L558.96 35.07zM558.96 59.07L579.74 71.07L579.74 95.07L558.96 107.07L538.17 95.07L538.17 71.07zM579.74 167.07L600.53 179.07L600.53 203.07L579.74 215.07L558.96 203.07L558.96 179.07zM558.96 203.07L579.74 215.07L579.74 239.07L558.96 251.07L538.17 239.07L538.17 215.07zM579.74 311.07L600.53 323.07L600.53 347.07L579.74 359.07L558.96 347.07L558.96 323.07zM558.96 347.07L579.74 359.07L579.74 383.07L558.96 395.07L538.17 383.07L538.17 359.07zM579.74 383.07L600.53 395.07L600.53 419.07L579.74 431.07L558.96 419.07L558.96 395.07zM558.96 419.07L579.74 431.07L579.74 455.07L558.96 467.07L538.17 455.07L538.17 431.07zM558.96 491.07L579.74 503.07L579.74 527.07L558.96 539.07L538.17 527.07L538.17 503.07zM621.31 383.07L642.1 395.07L642.1 419.07L621.31 431.07L600.53 419.07L600.53 395.07zM600.53 491.07L621.31 503.07L621.31 527.07L600.53 539.07L579.74 527.07L579.74 503.07zM621.31 527.07L642.1 539.07L642.1 563.07L621.31 575.07L600.53 563.07L600.53 539.07zM662.88 23.07L683.67 35.07L683.67 59.07L662.88 71.07L642.1 59.07L642.1 35.07zM662.88 167.07L683.67 179.07L683.67 203.07L662.88 215.07L642.1 203.07L642.1 179.07zM642.1 275.07L662.88 287.07L662.88 311.07L642.1 323.07L621.31 311.07L621.31 287.07zM642.1 347.07L662.88 359.07L662.88 383.07L642.1 395.07L621.31 383.07L621.31 359.07zM662.88 383.07L683.67 395.07L683.67 419.07L662.88 431.07L642.1 419.07L642.1 395.07zM642.1 419.07L662.88 431.07L662.88 455.07L642.1 467.07L621.31 455.07L621.31 431.07zM683.67 59.07L704.45 71.07L704.45 95.07L683.67 107.07L662.88 95.07L662.88 71.07zM704.45 95.07L725.24 107.07L725.24 131.07L704.45 143.07L683.67 131.07L683.67 107.07zM704.45 239.07L725.24 251.07L725.24 275.07L704.45 287.07L683.67 275.07L683.67 251.07zM704.45 311.07L725.24 323.07L725.24 347.07L704.45 359.07L683.67 347.07L683.67 323.07zM683.67 419.07L704.45 431.07L704.45 455.07L683.67 467.07L662.88 455.07L662.88 431.07zM683.67 491.07L704.45 503.07L704.45 527.07L683.67 539.07L662.88 527.07L662.88 503.07zM683.67 563.07L704.45 575.07L704.45 599.07L683.67 611.07L662.88 599.07L662.88 575.07zM725.24 203.07L746.02 215.07L746.02 239.07L725.24 251.07L704.45 239.07L704.45 215.07zM787.59 23.07L808.38 35.07L808.38 59.07L787.59 71.07L766.81 59.07L766.81 35.07zM766.81 59.07L787.59 71.07L787.59 95.07L766.81 107.07L746.02 95.07L746.02 71.07zM766.81 203.07L787.59 215.07L787.59 239.07L766.81 251.07L746.02 239.07L746.02 215.07zM787.59 239.07L808.38 251.07L808.38 275.07L787.59 287.07L766.81 275.07L766.81 251.07zM766.81 347.07L787.59 359.07L787.59 383.07L766.81 395.07L746.02 383.07L746.02 359.07zM787.59 383.07L808.38 395.07L808.38 419.07L787.59 431.07L766.81 419.07L766.81 395.07zM829.16 95.07L849.95 107.07L849.95 131.07L829.16 143.07L808.38 131.07L808.38 107.07zM829.16 311.07L849.95 323.07L849.95 347.07L829.16 359.07L808.38 347.07L808.38 323.07zM829.16 455.07L849.95 467.07L849.95 491.07L829.16 503.07L808.38 491.07L808.38 467.07zM808.38 563.07L829.16 575.07L829.16 599.07L808.38 611.07L787.59 599.07L787.59 575.07zM870.73 23.07L891.52 35.07L891.52 59.07L870.73 71.07L849.95 59.07L849.95 35.07zM849.95 275.07L870.73 287.07L870.73 311.07L849.95 323.07L829.16 311.07L829.16 287.07zM870.73 311.07L891.52 323.07L891.52 347.07L870.73 359.07L849.95 347.07L849.95 323.07zM870.73 527.07L891.52 539.07L891.52 563.07L870.73 575.07L849.95 563.07L849.95 539.07zM912.3 23.07L933.09 35.07L933.09 59.07L912.3 71.07L891.52 59.07L891.52 35.07zM912.3 95.07L933.09 107.07L933.09 131.07L912.3 143.07L891.52 131.07L891.52 107.07zM891.52 131.07L912.3 143.07L912.3 167.07L891.52 179.07L870.73 167.07L870.73 143.07zM891.52 275.07L912.3 287.07L912.3 311.07L891.52 323.07L870.73 311.07L870.73 287.07zM912.3 311.07L933.09 323.07L933.09 347.07L912.3 359.07L891.52 347.07L891.52 323.07zM912.3 383.07L933.09 395.07L933.09 419.07L912.3 431.07L891.52 419.07L891.52 395.07zM933.09 -12.93L953.87 -0.93L953.87 23.07L933.09 35.07L912.3 23.07L912.3 -0.93zM953.87 167.07L974.66 179.07L974.66 203.07L953.87 215.07L933.09 203.07L933.09 179.07zM953.87 311.07L974.66 323.07L974.66 347.07L953.87 359.07L933.09 347.07L933.09 323.07zM953.87 383.07L974.66 395.07L974.66 419.07L953.87 431.07L933.09 419.07L933.09 395.07zM933.09 419.07L953.87 431.07L953.87 455.07L933.09 467.07L912.3 455.07L912.3 431.07zM953.87 455.07L974.66 467.07L974.66 491.07L953.87 503.07L933.09 491.07L933.09 467.07zM995.44 23.07L1016.23 35.07L1016.23 59.07L995.44 71.07L974.66 59.07L974.66 35.07zM974.66 59.07L995.44 71.07L995.44 95.07L974.66 107.07L953.87 95.07L953.87 71.07zM974.66 131.07L995.44 143.07L995.44 167.07L974.66 179.07L953.87 167.07L953.87 143.07zM974.66 203.07L995.44 215.07L995.44 239.07L974.66 251.07L953.87 239.07L953.87 215.07zM995.44 239.07L1016.23 251.07L1016.23 275.07L995.44 287.07L974.66 275.07L974.66 251.07zM974.66 419.07L995.44 431.07L995.44 455.07L974.66 467.07L953.87 455.07L953.87 431.07zM974.66 563.07L995.44 575.07L995.44 599.07L974.66 611.07L953.87 599.07L953.87 575.07zM1016.23 59.07L1037.01 71.07L1037.01 95.07L1016.23 107.07L995.44 95.07L995.44 71.07zM1016.23 131.07L1037.01 143.07L1037.01 167.07L1016.23 179.07L995.44 167.07L995.44 143.07zM1016.23 347.07L1037.01 359.07L1037.01 383.07L1016.23 395.07L995.44 383.07L995.44 359.07zM1016.23 419.07L1037.01 431.07L1037.01 455.07L1016.23 467.07L995.44 455.07L995.44 431.07zM1016.23 563.07L1037.01 575.07L1037.01 599.07L1016.23 611.07L995.44 599.07L995.44 575.07zM1078.59 23.07L1099.37 35.07L1099.37 59.07L1078.59 71.07L1057.8 59.07L1057.8 35.07zM1078.59 167.07L1099.37 179.07L1099.37 203.07L1078.59 215.07L1057.8 203.07L1057.8 179.07zM1078.59 239.07L1099.37 251.07L1099.37 275.07L1078.59 287.07L1057.8 275.07L1057.8 251.07zM1078.59 311.07L1099.37 323.07L1099.37 347.07L1078.59 359.07L1057.8 347.07L1057.8 323.07zM1078.59 383.07L1099.37 395.07L1099.37 419.07L1078.59 431.07L1057.8 419.07L1057.8 395.07zM1078.59 455.07L1099.37 467.07L1099.37 491.07L1078.59 503.07L1057.8 491.07L1057.8 467.07zM1057.8 491.07L1078.59 503.07L1078.59 527.07L1057.8 539.07L1037.01 527.07L1037.01 503.07zM1099.37 59.07L1120.16 71.07L1120.16 95.07L1099.37 107.07L1078.59 95.07L1078.59 71.07zM1120.16 239.07L1140.94 251.07L1140.94 275.07L1120.16 287.07L1099.37 275.07L1099.37 251.07zM1099.37 275.07L1120.16 287.07L1120.16 311.07L1099.37 323.07L1078.59 311.07L1078.59 287.07zM1120.16 311.07L1140.94 323.07L1140.94 347.07L1120.16 359.07L1099.37 347.07L1099.37 323.07zM1120.16 383.07L1140.94 395.07L1140.94 419.07L1120.16 431.07L1099.37 419.07L1099.37 395.07zM1120.16 527.07L1140.94 539.07L1140.94 563.07L1120.16 575.07L1099.37 563.07L1099.37 539.07zM1161.73 23.07L1182.51 35.07L1182.51 59.07L1161.73 71.07L1140.94 59.07L1140.94 35.07zM1140.94 131.07L1161.73 143.07L1161.73 167.07L1140.94 179.07L1120.16 167.07L1120.16 143.07zM1161.73 311.07L1182.51 323.07L1182.51 347.07L1161.73 359.07L1140.94 347.07L1140.94 323.07zM1140.94 419.07L1161.73 431.07L1161.73 455.07L1140.94 467.07L1120.16 455.07L1120.16 431.07zM1161.73 455.07L1182.51 467.07L1182.51 491.07L1161.73 503.07L1140.94 491.07L1140.94 467.07zM1182.51 59.07L1203.3 71.07L1203.3 95.07L1182.51 107.07L1161.73 95.07L1161.73 71.07zM1203.3 239.07L1224.08 251.07L1224.08 275.07L1203.3 287.07L1182.51 275.07L1182.51 251.07zM1182.51 275.07L1203.3 287.07L1203.3 311.07L1182.51 323.07L1161.73 311.07L1161.73 287.07zM1182.51 347.07L1203.3 359.07L1203.3 383.07L1182.51 395.07L1161.73 383.07L1161.73 359.07zM1203.3 383.07L1224.08 395.07L1224.08 419.07L1203.3 431.07L1182.51 419.07L1182.51 395.07zM1203.3 455.07L1224.08 467.07L1224.08 491.07L1203.3 503.07L1182.51 491.07L1182.51 467.07zM1224.08 -12.93L1244.87 -0.93L1244.87 23.07L1224.08 35.07L1203.3 23.07L1203.3 -0.93zM1224.08 275.07L1244.87 287.07L1244.87 311.07L1224.08 323.07L1203.3 311.07L1203.3 287.07zM1244.87 383.07L1265.65 395.07L1265.65 419.07L1244.87 431.07L1224.08 419.07L1224.08 395.07zM1224.08 491.07L1244.87 503.07L1244.87 527.07L1224.08 539.07L1203.3 527.07L1203.3 503.07zM1265.65 -12.93L1286.44 -0.93L1286.44 23.07L1265.65 35.07L1244.87 23.07L1244.87 -0.93zM1286.44 23.07L1307.22 35.07L1307.22 59.07L1286.44 71.07L1265.65 59.07L1265.65 35.07zM1265.65 59.07L1286.44 71.07L1286.44 95.07L1265.65 107.07L1244.87 95.07L1244.87 71.07zM1286.44 311.07L1307.22 323.07L1307.22 347.07L1286.44 359.07L1265.65 347.07L1265.65 323.07zM1328.01 239.07L1348.79 251.07L1348.79 275.07L1328.01 287.07L1307.22 275.07L1307.22 251.07zM1307.22 563.07L1328.01 575.07L1328.01 599.07L1307.22 611.07L1286.44 599.07L1286.44 575.07zM1348.79 275.07L1369.58 287.07L1369.58 311.07L1348.79 323.07L1328.01 311.07L1328.01 287.07zM1348.79 347.07L1369.58 359.07L1369.58 383.07L1348.79 395.07L1328.01 383.07L1328.01 359.07zM1390.36 -12.93L1411.15 -0.93L1411.15 23.07L1390.36 35.07L1369.58 23.07L1369.58 -0.93zM1390.36 131.07L1411.15 143.07L1411.15 167.07L1390.36 179.07L1369.58 167.07L1369.58 143.07zM1411.15 167.07L1431.93 179.07L1431.93 203.07L1411.15 215.07L1390.36 203.07L1390.36 179.07zM1390.36 491.07L1411.15 503.07L1411.15 527.07L1390.36 539.07L1369.58 527.07L1369.58 503.07zM1431.93 203.07L1452.72 215.07L1452.72 239.07L1431.93 251.07L1411.15 239.07L1411.15 215.07z" stroke="rgba(66, 68, 90, 1)" stroke-width="2"></path>
        <path d="M36.33 95.07 a3 3 0 1 0 6 0 a3 3 0 1 0 -6 0zM57.11 107.07 a3 3 0 1 0 6 0 a3 3 0 1 0 -6 0zM57.11 131.07 a3 3 0 1 0 6 0 a3 3 0 1 0 -6 0zM36.33 143.07 a3 3 0 1 0 6 0 a3 3 0 1 0 -6 0zM15.54 131.07 a3 3 0 1 0 6 0 a3 3 0 1 0 -6 0zM15.54 107.07 a3 3 0 1 0 6 0 a3 3 0 1 0 -6 0zM15.54 347.07 a3 3 0 1 0 6 0 a3 3 0 1 0 -6 0zM36.33 359.07 a3 3 0 1 0 6 0 a3 3 0 1 0 -6 0zM36.33 383.07 a3 3 0 1 0 6 0 a3 3 0 1 0 -6 0zM15.54 395.07 a3 3 0 1 0 6 0 a3 3 0 1 0 -6 0zM-5.25 383.07 a3 3 0 1 0 6 0 a3 3 0 1 0 -6 0zM-5.25 359.07 a3 3 0 1 0 6 0 a3 3 0 1 0 -6 0zM15.54 419.07 a3 3 0 1 0 6 0 a3 3 0 1 0 -6 0zM36.33 431.07 a3 3 0 1 0 6 0 a3 3 0 1 0 -6 0zM36.33 455.07 a3 3 0 1 0 6 0 a3 3 0 1 0 -6 0zM15.54 467.07 a3 3 0 1 0 6 0 a3 3 0 1 0 -6 0zM-5.25 455.07 a3 3 0 1 0 6 0 a3 3 0 1 0 -6 0zM-5.25 431.07 a3 3 0 1 0 6 0 a3 3 0 1 0 -6 0zM57.11 59.07 a3 3 0 1 0 6 0 a3 3 0 1 0 -6 0zM77.9 71.07 a3 3 0 1 0 6 0 a3 3 0 1 0 -6 0zM77.9 95.07 a3 3 0 1 0 6 0 a3 3 0 1 0 -6 0zM36.33 71.07 a3 3 0 1 0 6 0 a3 3 0 1 0 -6 0zM98.68 107.07 a3 3 0 1 0 6 0 a3 3 0 1 0 -6 0zM98.68 131.07 a3 3 0 1 0 6 0 a3 3 0 1 0 -6 0zM77.9 143.07 a3 3 0 1 0 6 0 a3 3 0 1 0 -6 0zM57.11 203.07 a3 3 0 1 0 6 0 a3 3 0 1 0 -6 0zM77.9 215.07 a3 3 0 1 0 6 0 a3 3 0 1 0 -6 0zM77.9 239.07 a3 3 0 1 0 6 0 a3 3 0 1 0 -6 0zM57.11 251.07 a3 3 0 1 0 6 0 a3 3 0 1 0 -6 0zM36.33 239.07 a3 3 0 1 0 6 0 a3 3 0 1 0 -6 0zM36.33 215.07 a3 3 0 1 0 6 0 a3 3 0 1 0 -6 0zM77.9 383.07 a3 3 0 1 0 6 0 a3 3 0 1 0 -6 0zM98.68 395.07 a3 3 0 1 0 6 0 a3 3 0 1 0 -6 0zM98.68 419.07 a3 3 0 1 0 6 0 a3 3 0 1 0 -6 0zM77.9 431.07 a3 3 0 1 0 6 0 a3 3 0 1 0 -6 0zM57.11 419.07 a3 3 0 1 0 6 0 a3 3 0 1 0 -6 0zM57.11 395.07 a3 3 0 1 0 6 0 a3 3 0 1 0 -6 0zM77.9 455.07 a3 3 0 1 0 6 0 a3 3 0 1 0 -6 0zM57.11 467.07 a3 3 0 1 0 6 0 a3 3 0 1 0 -6 0zM57.11 563.07 a3 3 0 1 0 6 0 a3 3 0 1 0 -6 0zM77.9 575.07 a3 3 0 1 0 6 0 a3 3 0 1 0 -6 0zM77.9 599.07 a3 3 0 1 0 6 0 a3 3 0 1 0 -6 0zM57.11 611.07 a3 3 0 1 0 6 0 a3 3 0 1 0 -6 0zM36.33 599.07 a3 3 0 1 0 6 0 a3 3 0 1 0 -6 0zM36.33 575.07 a3 3 0 1 0 6 0 a3 3 0 1 0 -6 0zM119.47 23.07 a3 3 0 1 0 6 0 a3 3 0 1 0 -6 0zM140.25 35.07 a3 3 0 1 0 6 0 a3 3 0 1 0 -6 0zM140.25 59.07 a3 3 0 1 0 6 0 a3 3 0 1 0 -6 0zM119.47 71.07 a3 3 0 1 0 6 0 a3 3 0 1 0 -6 0zM98.68 59.07 a3 3 0 1 0 6 0 a3 3 0 1 0 -6 0zM98.68 35.07 a3 3 0 1 0 6 0 a3 3 0 1 0 -6 0zM119.47 95.07 a3 3 0 1 0 6 0 a3 3 0 1 0 -6 0zM140.25 107.07 a3 3 0 1 0 6 0 a3 3 0 1 0 -6 0zM140.25 131.07 a3 3 0 1 0 6 0 a3 3 0 1 0 -6 0zM119.47 143.07 a3 3 0 1 0 6 0 a3 3 0 1 0 -6 0zM119.47 431.07 a3 3 0 1 0 6 0 a3 3 0 1 0 -6 0zM119.47 455.07 a3 3 0 1 0 6 0 a3 3 0 1 0 -6 0zM98.68 467.07 a3 3 0 1 0 6 0 a3 3 0 1 0 -6 0zM119.47 527.07 a3 3 0 1 0 6 0 a3 3 0 1 0 -6 0zM140.25 539.07 a3 3 0 1 0 6 0 a3 3 0 1 0 -6 0zM140.25 563.07 a3 3 0 1 0 6 0 a3 3 0 1 0 -6 0zM119.47 575.07 a3 3 0 1 0 6 0 a3 3 0 1 0 -6 0zM98.68 563.07 a3 3 0 1 0 6 0 a3 3 0 1 0 -6 0zM98.68 539.07 a3 3 0 1 0 6 0 a3 3 0 1 0 -6 0zM119.47 599.07 a3 3 0 1 0 6 0 a3 3 0 1 0 -6 0zM98.68 611.07 a3 3 0 1 0 6 0 a3 3 0 1 0 -6 0zM140.25 -12.93 a3 3 0 1 0 6 0 a3 3 0 1 0 -6 0zM161.04 -0.93 a3 3 0 1 0 6 0 a3 3 0 1 0 -6 0zM161.04 23.07 a3 3 0 1 0 6 0 a3 3 0 1 0 -6 0zM119.47 -0.93 a3 3 0 1 0 6 0 a3 3 0 1 0 -6 0zM161.04 143.07 a3 3 0 1 0 6 0 a3 3 0 1 0 -6 0zM161.04 167.07 a3 3 0 1 0 6 0 a3 3 0 1 0 -6 0zM140.25 179.07 a3 3 0 1 0 6 0 a3 3 0 1 0 -6 0zM119.47 167.07 a3 3 0 1 0 6 0 a3 3 0 1 0 -6 0zM140.25 275.07 a3 3 0 1 0 6 0 a3 3 0 1 0 -6 0zM161.04 287.07 a3 3 0 1 0 6 0 a3 3 0 1 0 -6 0zM161.04 311.07 a3 3 0 1 0 6 0 a3 3 0 1 0 -6 0zM140.25 323.07 a3 3 0 1 0 6 0 a3 3 0 1 0 -6 0zM119.47 311.07 a3 3 0 1 0 6 0 a3 3 0 1 0 -6 0zM119.47 287.07 a3 3 0 1 0 6 0 a3 3 0 1 0 -6 0zM140.25 491.07 a3 3 0 1 0 6 0 a3 3 0 1 0 -6 0zM161.04 503.07 a3 3 0 1 0 6 0 a3 3 0 1 0 -6 0zM161.04 527.07 a3 3 0 1 0 6 0 a3 3 0 1 0 -6 0zM119.47 503.07 a3 3 0 1 0 6 0 a3 3 0 1 0 -6 0zM202.61 23.07 a3 3 0 1 0 6 0 a3 3 0 1 0 -6 0zM223.39 35.07 a3 3 0 1 0 6 0 a3 3 0 1 0 -6 0zM223.39 59.07 a3 3 0 1 0 6 0 a3 3 0 1 0 -6 0zM202.61 71.07 a3 3 0 1 0 6 0 a3 3 0 1 0 -6 0zM181.82 59.07 a3 3 0 1 0 6 0 a3 3 0 1 0 -6 0zM181.82 35.07 a3 3 0 1 0 6 0 a3 3 0 1 0 -6 0zM181.82 275.07 a3 3 0 1 0 6 0 a3 3 0 1 0 -6 0zM202.61 287.07 a3 3 0 1 0 6 0 a3 3 0 1 0 -6 0zM202.61 311.07 a3 3 0 1 0 6 0 a3 3 0 1 0 -6 0zM181.82 323.07 a3 3 0 1 0 6 0 a3 3 0 1 0 -6 0zM202.61 455.07 a3 3 0 1 0 6 0 a3 3 0 1 0 -6 0zM223.39 467.07 a3 3 0 1 0 6 0 a3 3 0 1 0 -6 0zM223.39 491.07 a3 3 0 1 0 6 0 a3 3 0 1 0 -6 0zM202.61 503.07 a3 3 0 1 0 6 0 a3 3 0 1 0 -6 0zM181.82 491.07 a3 3 0 1 0 6 0 a3 3 0 1 0 -6 0zM181.82 467.07 a3 3 0 1 0 6 0 a3 3 0 1 0 -6 0zM202.61 527.07 a3 3 0 1 0 6 0 a3 3 0 1 0 -6 0zM223.39 539.07 a3 3 0 1 0 6 0 a3 3 0 1 0 -6 0zM223.39 563.07 a3 3 0 1 0 6 0 a3 3 0 1 0 -6 0zM202.61 575.07 a3 3 0 1 0 6 0 a3 3 0 1 0 -6 0zM181.82 563.07 a3 3 0 1 0 6 0 a3 3 0 1 0 -6 0zM181.82 539.07 a3 3 0 1 0 6 0 a3 3 0 1 0 -6 0zM202.61 599.07 a3 3 0 1 0 6 0 a3 3 0 1 0 -6 0zM181.82 611.07 a3 3 0 1 0 6 0 a3 3 0 1 0 -6 0zM161.04 599.07 a3 3 0 1 0 6 0 a3 3 0 1 0 -6 0zM161.04 575.07 a3 3 0 1 0 6 0 a3 3 0 1 0 -6 0zM244.18 383.07 a3 3 0 1 0 6 0 a3 3 0 1 0 -6 0zM264.96 395.07 a3 3 0 1 0 6 0 a3 3 0 1 0 -6 0zM264.96 419.07 a3 3 0 1 0 6 0 a3 3 0 1 0 -6 0zM244.18 431.07 a3 3 0 1 0 6 0 a3 3 0 1 0 -6 0zM223.39 419.07 a3 3 0 1 0 6 0 a3 3 0 1 0 -6 0zM223.39 395.07 a3 3 0 1 0 6 0 a3 3 0 1 0 -6 0zM244.18 455.07 a3 3 0 1 0 6 0 a3 3 0 1 0 -6 0zM202.61 431.07 a3 3 0 1 0 6 0 a3 3 0 1 0 -6 0zM264.96 -12.93 a3 3 0 1 0 6 0 a3 3 0 1 0 -6 0zM285.75 -0.93 a3 3 0 1 0 6 0 a3 3 0 1 0 -6 0zM285.75 23.07 a3 3 0 1 0 6 0 a3 3 0 1 0 -6 0zM264.96 35.07 a3 3 0 1 0 6 0 a3 3 0 1 0 -6 0zM244.18 23.07 a3 3 0 1 0 6 0 a3 3 0 1 0 -6 0zM244.18 -0.93 a3 3 0 1 0 6 0 a3 3 0 1 0 -6 0zM264.96 131.07 a3 3 0 1 0 6 0 a3 3 0 1 0 -6 0zM285.75 143.07 a3 3 0 1 0 6 0 a3 3 0 1 0 -6 0zM285.75 167.07 a3 3 0 1 0 6 0 a3 3 0 1 0 -6 0zM264.96 179.07 a3 3 0 1 0 6 0 a3 3 0 1 0 -6 0zM244.18 167.07 a3 3 0 1 0 6 0 a3 3 0 1 0 -6 0zM244.18 143.07 a3 3 0 1 0 6 0 a3 3 0 1 0 -6 0zM306.53 179.07 a3 3 0 1 0 6 0 a3 3 0 1 0 -6 0zM306.53 203.07 a3 3 0 1 0 6 0 a3 3 0 1 0 -6 0zM285.75 215.07 a3 3 0 1 0 6 0 a3 3 0 1 0 -6 0zM264.96 203.07 a3 3 0 1 0 6 0 a3 3 0 1 0 -6 0zM264.96 275.07 a3 3 0 1 0 6 0 a3 3 0 1 0 -6 0zM285.75 287.07 a3 3 0 1 0 6 0 a3 3 0 1 0 -6 0zM285.75 311.07 a3 3 0 1 0 6 0 a3 3 0 1 0 -6 0zM264.96 323.07 a3 3 0 1 0 6 0 a3 3 0 1 0 -6 0zM244.18 311.07 a3 3 0 1 0 6 0 a3 3 0 1 0 -6 0zM244.18 287.07 a3 3 0 1 0 6 0 a3 3 0 1 0 -6 0zM306.53 323.07 a3 3 0 1 0 6 0 a3 3 0 1 0 -6 0zM306.53 347.07 a3 3 0 1 0 6 0 a3 3 0 1 0 -6 0zM285.75 359.07 a3 3 0 1 0 6 0 a3 3 0 1 0 -6 0zM264.96 347.07 a3 3 0 1 0 6 0 a3 3 0 1 0 -6 0zM285.75 383.07 a3 3 0 1 0 6 0 a3 3 0 1 0 -6 0zM306.53 395.07 a3 3 0 1 0 6 0 a3 3 0 1 0 -6 0zM306.53 419.07 a3 3 0 1 0 6 0 a3 3 0 1 0 -6 0zM285.75 431.07 a3 3 0 1 0 6 0 a3 3 0 1 0 -6 0zM285.75 455.07 a3 3 0 1 0 6 0 a3 3 0 1 0 -6 0zM264.96 467.07 a3 3 0 1 0 6 0 a3 3 0 1 0 -6 0zM327.32 95.07 a3 3 0 1 0 6 0 a3 3 0 1 0 -6 0zM348.1 107.07 a3 3 0 1 0 6 0 a3 3 0 1 0 -6 0zM348.1 131.07 a3 3 0 1 0 6 0 a3 3 0 1 0 -6 0zM327.32 143.07 a3 3 0 1 0 6 0 a3 3 0 1 0 -6 0zM306.53 131.07 a3 3 0 1 0 6 0 a3 3 0 1 0 -6 0zM306.53 107.07 a3 3 0 1 0 6 0 a3 3 0 1 0 -6 0zM327.32 167.07 a3 3 0 1 0 6 0 a3 3 0 1 0 -6 0zM348.1 179.07 a3 3 0 1 0 6 0 a3 3 0 1 0 -6 0zM348.1 203.07 a3 3 0 1 0 6 0 a3 3 0 1 0 -6 0zM327.32 215.07 a3 3 0 1 0 6 0 a3 3 0 1 0 -6 0zM306.53 491.07 a3 3 0 1 0 6 0 a3 3 0 1 0 -6 0zM327.32 503.07 a3 3 0 1 0 6 0 a3 3 0 1 0 -6 0zM327.32 527.07 a3 3 0 1 0 6 0 a3 3 0 1 0 -6 0zM306.53 539.07 a3 3 0 1 0 6 0 a3 3 0 1 0 -6 0zM285.75 527.07 a3 3 0 1 0 6 0 a3 3 0 1 0 -6 0zM285.75 503.07 a3 3 0 1 0 6 0 a3 3 0 1 0 -6 0zM348.1 -12.93 a3 3 0 1 0 6 0 a3 3 0 1 0 -6 0zM368.89 -0.93 a3 3 0 1 0 6 0 a3 3 0 1 0 -6 0zM368.89 23.07 a3 3 0 1 0 6 0 a3 3 0 1 0 -6 0zM348.1 35.07 a3 3 0 1 0 6 0 a3 3 0 1 0 -6 0zM327.32 23.07 a3 3 0 1 0 6 0 a3 3 0 1 0 -6 0zM327.32 -0.93 a3 3 0 1 0 6 0 a3 3 0 1 0 -6 0zM348.1 59.07 a3 3 0 1 0 6 0 a3 3 0 1 0 -6 0zM368.89 71.07 a3 3 0 1 0 6 0 a3 3 0 1 0 -6 0zM368.89 95.07 a3 3 0 1 0 6 0 a3 3 0 1 0 -6 0zM327.32 71.07 a3 3 0 1 0 6 0 a3 3 0 1 0 -6 0zM368.89 167.07 a3 3 0 1 0 6 0 a3 3 0 1 0 -6 0zM389.67 179.07 a3 3 0 1 0 6 0 a3 3 0 1 0 -6 0zM389.67 203.07 a3 3 0 1 0 6 0 a3 3 0 1 0 -6 0zM368.89 215.07 a3 3 0 1 0 6 0 a3 3 0 1 0 -6 0zM368.89 455.07 a3 3 0 1 0 6 0 a3 3 0 1 0 -6 0zM389.67 467.07 a3 3 0 1 0 6 0 a3 3 0 1 0 -6 0zM389.67 491.07 a3 3 0 1 0 6 0 a3 3 0 1 0 -6 0zM368.89 503.07 a3 3 0 1 0 6 0 a3 3 0 1 0 -6 0zM348.1 491.07 a3 3 0 1 0 6 0 a3 3 0 1 0 -6 0zM348.1 467.07 a3 3 0 1 0 6 0 a3 3 0 1 0 -6 0zM410.46 383.07 a3 3 0 1 0 6 0 a3 3 0 1 0 -6 0zM431.24 395.07 a3 3 0 1 0 6 0 a3 3 0 1 0 -6 0zM431.24 419.07 a3 3 0 1 0 6 0 a3 3 0 1 0 -6 0zM410.46 431.07 a3 3 0 1 0 6 0 a3 3 0 1 0 -6 0zM389.67 419.07 a3 3 0 1 0 6 0 a3 3 0 1 0 -6 0zM389.67 395.07 a3 3 0 1 0 6 0 a3 3 0 1 0 -6 0zM410.46 455.07 a3 3 0 1 0 6 0 a3 3 0 1 0 -6 0zM431.24 467.07 a3 3 0 1 0 6 0 a3 3 0 1 0 -6 0zM431.24 491.07 a3 3 0 1 0 6 0 a3 3 0 1 0 -6 0zM410.46 503.07 a3 3 0 1 0 6 0 a3 3 0 1 0 -6 0zM389.67 563.07 a3 3 0 1 0 6 0 a3 3 0 1 0 -6 0zM410.46 575.07 a3 3 0 1 0 6 0 a3 3 0 1 0 -6 0zM410.46 599.07 a3 3 0 1 0 6 0 a3 3 0 1 0 -6 0zM389.67 611.07 a3 3 0 1 0 6 0 a3 3 0 1 0 -6 0zM368.89 599.07 a3 3 0 1 0 6 0 a3 3 0 1 0 -6 0zM368.89 575.07 a3 3 0 1 0 6 0 a3 3 0 1 0 -6 0zM452.03 95.07 a3 3 0 1 0 6 0 a3 3 0 1 0 -6 0zM472.81 107.07 a3 3 0 1 0 6 0 a3 3 0 1 0 -6 0zM472.81 131.07 a3 3 0 1 0 6 0 a3 3 0 1 0 -6 0zM452.03 143.07 a3 3 0 1 0 6 0 a3 3 0 1 0 -6 0zM431.24 131.07 a3 3 0 1 0 6 0 a3 3 0 1 0 -6 0zM431.24 107.07 a3 3 0 1 0 6 0 a3 3 0 1 0 -6 0zM452.03 167.07 a3 3 0 1 0 6 0 a3 3 0 1 0 -6 0zM472.81 179.07 a3 3 0 1 0 6 0 a3 3 0 1 0 -6 0zM472.81 203.07 a3 3 0 1 0 6 0 a3 3 0 1 0 -6 0zM452.03 215.07 a3 3 0 1 0 6 0 a3 3 0 1 0 -6 0zM431.24 203.07 a3 3 0 1 0 6 0 a3 3 0 1 0 -6 0zM431.24 179.07 a3 3 0 1 0 6 0 a3 3 0 1 0 -6 0zM452.03 311.07 a3 3 0 1 0 6 0 a3 3 0 1 0 -6 0zM472.81 323.07 a3 3 0 1 0 6 0 a3 3 0 1 0 -6 0zM472.81 347.07 a3 3 0 1 0 6 0 a3 3 0 1 0 -6 0zM452.03 359.07 a3 3 0 1 0 6 0 a3 3 0 1 0 -6 0zM431.24 347.07 a3 3 0 1 0 6 0 a3 3 0 1 0 -6 0zM431.24 323.07 a3 3 0 1 0 6 0 a3 3 0 1 0 -6 0zM452.03 383.07 a3 3 0 1 0 6 0 a3 3 0 1 0 -6 0zM410.46 359.07 a3 3 0 1 0 6 0 a3 3 0 1 0 -6 0zM493.6 167.07 a3 3 0 1 0 6 0 a3 3 0 1 0 -6 0zM514.38 179.07 a3 3 0 1 0 6 0 a3 3 0 1 0 -6 0zM514.38 203.07 a3 3 0 1 0 6 0 a3 3 0 1 0 -6 0zM493.6 215.07 a3 3 0 1 0 6 0 a3 3 0 1 0 -6 0zM493.6 239.07 a3 3 0 1 0 6 0 a3 3 0 1 0 -6 0zM472.81 251.07 a3 3 0 1 0 6 0 a3 3 0 1 0 -6 0zM452.03 239.07 a3 3 0 1 0 6 0 a3 3 0 1 0 -6 0zM472.81 275.07 a3 3 0 1 0 6 0 a3 3 0 1 0 -6 0zM493.6 287.07 a3 3 0 1 0 6 0 a3 3 0 1 0 -6 0zM493.6 311.07 a3 3 0 1 0 6 0 a3 3 0 1 0 -6 0zM452.03 287.07 a3 3 0 1 0 6 0 a3 3 0 1 0 -6 0zM472.81 563.07 a3 3 0 1 0 6 0 a3 3 0 1 0 -6 0zM493.6 575.07 a3 3 0 1 0 6 0 a3 3 0 1 0 -6 0zM493.6 599.07 a3 3 0 1 0 6 0 a3 3 0 1 0 -6 0zM472.81 611.07 a3 3 0 1 0 6 0 a3 3 0 1 0 -6 0zM452.03 599.07 a3 3 0 1 0 6 0 a3 3 0 1 0 -6 0zM452.03 575.07 a3 3 0 1 0 6 0 a3 3 0 1 0 -6 0zM514.38 -12.93 a3 3 0 1 0 6 0 a3 3 0 1 0 -6 0zM535.17 -0.93 a3 3 0 1 0 6 0 a3 3 0 1 0 -6 0zM535.17 23.07 a3 3 0 1 0 6 0 a3 3 0 1 0 -6 0zM514.38 35.07 a3 3 0 1 0 6 0 a3 3 0 1 0 -6 0zM493.6 23.07 a3 3 0 1 0 6 0 a3 3 0 1 0 -6 0zM493.6 -0.93 a3 3 0 1 0 6 0 a3 3 0 1 0 -6 0zM514.38 59.07 a3 3 0 1 0 6 0 a3 3 0 1 0 -6 0zM535.17 71.07 a3 3 0 1 0 6 0 a3 3 0 1 0 -6 0zM535.17 95.07 a3 3 0 1 0 6 0 a3 3 0 1 0 -6 0zM514.38 107.07 a3 3 0 1 0 6 0 a3 3 0 1 0 -6 0zM493.6 95.07 a3 3 0 1 0 6 0 a3 3 0 1 0 -6 0zM493.6 71.07 a3 3 0 1 0 6 0 a3 3 0 1 0 -6 0zM535.17 215.07 a3 3 0 1 0 6 0 a3 3 0 1 0 -6 0zM535.17 239.07 a3 3 0 1 0 6 0 a3 3 0 1 0 -6 0zM514.38 251.07 a3 3 0 1 0 6 0 a3 3 0 1 0 -6 0zM555.96 251.07 a3 3 0 1 0 6 0 a3 3 0 1 0 -6 0zM555.96 275.07 a3 3 0 1 0 6 0 a3 3 0 1 0 -6 0zM535.17 287.07 a3 3 0 1 0 6 0 a3 3 0 1 0 -6 0zM514.38 275.07 a3 3 0 1 0 6 0 a3 3 0 1 0 -6 0zM514.38 491.07 a3 3 0 1 0 6 0 a3 3 0 1 0 -6 0zM535.17 503.07 a3 3 0 1 0 6 0 a3 3 0 1 0 -6 0zM535.17 527.07 a3 3 0 1 0 6 0 a3 3 0 1 0 -6 0zM514.38 539.07 a3 3 0 1 0 6 0 a3 3 0 1 0 -6 0zM493.6 527.07 a3 3 0 1 0 6 0 a3 3 0 1 0 -6 0zM493.6 503.07 a3 3 0 1 0 6 0 a3 3 0 1 0 -6 0zM555.96 539.07 a3 3 0 1 0 6 0 a3 3 0 1 0 -6 0zM555.96 563.07 a3 3 0 1 0 6 0 a3 3 0 1 0 -6 0zM535.17 575.07 a3 3 0 1 0 6 0 a3 3 0 1 0 -6 0zM514.38 563.07 a3 3 0 1 0 6 0 a3 3 0 1 0 -6 0zM555.96 -12.93 a3 3 0 1 0 6 0 a3 3 0 1 0 -6 0zM576.74 -0.93 a3 3 0 1 0 6 0 a3 3 0 1 0 -6 0zM576.74 23.07 a3 3 0 1 0 6 0 a3 3 0 1 0 -6 0zM555.96 35.07 a3 3 0 1 0 6 0 a3 3 0 1 0 -6 0zM597.53 35.07 a3 3 0 1 0 6 0 a3 3 0 1 0 -6 0zM597.53 59.07 a3 3 0 1 0 6 0 a3 3 0 1 0 -6 0zM576.74 71.07 a3 3 0 1 0 6 0 a3 3 0 1 0 -6 0zM555.96 59.07 a3 3 0 1 0 6 0 a3 3 0 1 0 -6 0zM576.74 95.07 a3 3 0 1 0 6 0 a3 3 0 1 0 -6 0zM555.96 107.07 a3 3 0 1 0 6 0 a3 3 0 1 0 -6 0zM576.74 167.07 a3 3 0 1 0 6 0 a3 3 0 1 0 -6 0zM597.53 179.07 a3 3 0 1 0 6 0 a3 3 0 1 0 -6 0zM597.53 203.07 a3 3 0 1 0 6 0 a3 3 0 1 0 -6 0zM576.74 215.07 a3 3 0 1 0 6 0 a3 3 0 1 0 -6 0zM555.96 203.07 a3 3 0 1 0 6 0 a3 3 0 1 0 -6 0zM555.96 179.07 a3 3 0 1 0 6 0 a3 3 0 1 0 -6 0zM576.74 239.07 a3 3 0 1 0 6 0 a3 3 0 1 0 -6 0zM576.74 311.07 a3 3 0 1 0 6 0 a3 3 0 1 0 -6 0zM597.53 323.07 a3 3 0 1 0 6 0 a3 3 0 1 0 -6 0zM597.53 347.07 a3 3 0 1 0 6 0 a3 3 0 1 0 -6 0zM576.74 359.07 a3 3 0 1 0 6 0 a3 3 0 1 0 -6 0zM555.96 347.07 a3 3 0 1 0 6 0 a3 3 0 1 0 -6 0zM555.96 323.07 a3 3 0 1 0 6 0 a3 3 0 1 0 -6 0zM576.74 383.07 a3 3 0 1 0 6 0 a3 3 0 1 0 -6 0zM555.96 395.07 a3 3 0 1 0 6 0 a3 3 0 1 0 -6 0zM535.17 383.07 a3 3 0 1 0 6 0 a3 3 0 1 0 -6 0zM535.17 359.07 a3 3 0 1 0 6 0 a3 3 0 1 0 -6 0zM597.53 395.07 a3 3 0 1 0 6 0 a3 3 0 1 0 -6 0zM597.53 419.07 a3 3 0 1 0 6 0 a3 3 0 1 0 -6 0zM576.74 431.07 a3 3 0 1 0 6 0 a3 3 0 1 0 -6 0zM555.96 419.07 a3 3 0 1 0 6 0 a3 3 0 1 0 -6 0zM576.74 455.07 a3 3 0 1 0 6 0 a3 3 0 1 0 -6 0zM555.96 467.07 a3 3 0 1 0 6 0 a3 3 0 1 0 -6 0zM535.17 455.07 a3 3 0 1 0 6 0 a3 3 0 1 0 -6 0zM535.17 431.07 a3 3 0 1 0 6 0 a3 3 0 1 0 -6 0zM555.96 491.07 a3 3 0 1 0 6 0 a3 3 0 1 0 -6 0zM576.74 503.07 a3 3 0 1 0 6 0 a3 3 0 1 0 -6 0zM576.74 527.07 a3 3 0 1 0 6 0 a3 3 0 1 0 -6 0zM618.31 383.07 a3 3 0 1 0 6 0 a3 3 0 1 0 -6 0zM639.1 395.07 a3 3 0 1 0 6 0 a3 3 0 1 0 -6 0zM639.1 419.07 a3 3 0 1 0 6 0 a3 3 0 1 0 -6 0zM618.31 431.07 a3 3 0 1 0 6 0 a3 3 0 1 0 -6 0zM597.53 491.07 a3 3 0 1 0 6 0 a3 3 0 1 0 -6 0zM618.31 503.07 a3 3 0 1 0 6 0 a3 3 0 1 0 -6 0zM618.31 527.07 a3 3 0 1 0 6 0 a3 3 0 1 0 -6 0zM597.53 539.07 a3 3 0 1 0 6 0 a3 3 0 1 0 -6 0zM639.1 539.07 a3 3 0 1 0 6 0 a3 3 0 1 0 -6 0zM639.1 563.07 a3 3 0 1 0 6 0 a3 3 0 1 0 -6 0zM618.31 575.07 a3 3 0 1 0 6 0 a3 3 0 1 0 -6 0zM597.53 563.07 a3 3 0 1 0 6 0 a3 3 0 1 0 -6 0zM659.88 23.07 a3 3 0 1 0 6 0 a3 3 0 1 0 -6 0zM680.67 35.07 a3 3 0 1 0 6 0 a3 3 0 1 0 -6 0zM680.67 59.07 a3 3 0 1 0 6 0 a3 3 0 1 0 -6 0zM659.88 71.07 a3 3 0 1 0 6 0 a3 3 0 1 0 -6 0zM639.1 59.07 a3 3 0 1 0 6 0 a3 3 0 1 0 -6 0zM639.1 35.07 a3 3 0 1 0 6 0 a3 3 0 1 0 -6 0zM659.88 167.07 a3 3 0 1 0 6 0 a3 3 0 1 0 -6 0zM680.67 179.07 a3 3 0 1 0 6 0 a3 3 0 1 0 -6 0zM680.67 203.07 a3 3 0 1 0 6 0 a3 3 0 1 0 -6 0zM659.88 215.07 a3 3 0 1 0 6 0 a3 3 0 1 0 -6 0zM639.1 203.07 a3 3 0 1 0 6 0 a3 3 0 1 0 -6 0zM639.1 179.07 a3 3 0 1 0 6 0 a3 3 0 1 0 -6 0zM639.1 275.07 a3 3 0 1 0 6 0 a3 3 0 1 0 -6 0zM659.88 287.07 a3 3 0 1 0 6 0 a3 3 0 1 0 -6 0zM659.88 311.07 a3 3 0 1 0 6 0 a3 3 0 1 0 -6 0zM639.1 323.07 a3 3 0 1 0 6 0 a3 3 0 1 0 -6 0zM618.31 311.07 a3 3 0 1 0 6 0 a3 3 0 1 0 -6 0zM618.31 287.07 a3 3 0 1 0 6 0 a3 3 0 1 0 -6 0zM639.1 347.07 a3 3 0 1 0 6 0 a3 3 0 1 0 -6 0zM659.88 359.07 a3 3 0 1 0 6 0 a3 3 0 1 0 -6 0zM659.88 383.07 a3 3 0 1 0 6 0 a3 3 0 1 0 -6 0zM618.31 359.07 a3 3 0 1 0 6 0 a3 3 0 1 0 -6 0zM680.67 395.07 a3 3 0 1 0 6 0 a3 3 0 1 0 -6 0zM680.67 419.07 a3 3 0 1 0 6 0 a3 3 0 1 0 -6 0zM659.88 431.07 a3 3 0 1 0 6 0 a3 3 0 1 0 -6 0zM659.88 455.07 a3 3 0 1 0 6 0 a3 3 0 1 0 -6 0zM639.1 467.07 a3 3 0 1 0 6 0 a3 3 0 1 0 -6 0zM618.31 455.07 a3 3 0 1 0 6 0 a3 3 0 1 0 -6 0zM701.45 71.07 a3 3 0 1 0 6 0 a3 3 0 1 0 -6 0zM701.45 95.07 a3 3 0 1 0 6 0 a3 3 0 1 0 -6 0zM680.67 107.07 a3 3 0 1 0 6 0 a3 3 0 1 0 -6 0zM659.88 95.07 a3 3 0 1 0 6 0 a3 3 0 1 0 -6 0zM722.24 107.07 a3 3 0 1 0 6 0 a3 3 0 1 0 -6 0zM722.24 131.07 a3 3 0 1 0 6 0 a3 3 0 1 0 -6 0zM701.45 143.07 a3 3 0 1 0 6 0 a3 3 0 1 0 -6 0zM680.67 131.07 a3 3 0 1 0 6 0 a3 3 0 1 0 -6 0zM701.45 239.07 a3 3 0 1 0 6 0 a3 3 0 1 0 -6 0zM722.24 251.07 a3 3 0 1 0 6 0 a3 3 0 1 0 -6 0zM722.24 275.07 a3 3 0 1 0 6 0 a3 3 0 1 0 -6 0zM701.45 287.07 a3 3 0 1 0 6 0 a3 3 0 1 0 -6 0zM680.67 275.07 a3 3 0 1 0 6 0 a3 3 0 1 0 -6 0zM680.67 251.07 a3 3 0 1 0 6 0 a3 3 0 1 0 -6 0zM701.45 311.07 a3 3 0 1 0 6 0 a3 3 0 1 0 -6 0zM722.24 323.07 a3 3 0 1 0 6 0 a3 3 0 1 0 -6 0zM722.24 347.07 a3 3 0 1 0 6 0 a3 3 0 1 0 -6 0zM701.45 359.07 a3 3 0 1 0 6 0 a3 3 0 1 0 -6 0zM680.67 347.07 a3 3 0 1 0 6 0 a3 3 0 1 0 -6 0zM680.67 323.07 a3 3 0 1 0 6 0 a3 3 0 1 0 -6 0zM701.45 431.07 a3 3 0 1 0 6 0 a3 3 0 1 0 -6 0zM701.45 455.07 a3 3 0 1 0 6 0 a3 3 0 1 0 -6 0zM680.67 467.07 a3 3 0 1 0 6 0 a3 3 0 1 0 -6 0zM680.67 491.07 a3 3 0 1 0 6 0 a3 3 0 1 0 -6 0zM701.45 503.07 a3 3 0 1 0 6 0 a3 3 0 1 0 -6 0zM701.45 527.07 a3 3 0 1 0 6 0 a3 3 0 1 0 -6 0zM680.67 539.07 a3 3 0 1 0 6 0 a3 3 0 1 0 -6 0zM659.88 527.07 a3 3 0 1 0 6 0 a3 3 0 1 0 -6 0zM659.88 503.07 a3 3 0 1 0 6 0 a3 3 0 1 0 -6 0zM680.67 563.07 a3 3 0 1 0 6 0 a3 3 0 1 0 -6 0zM701.45 575.07 a3 3 0 1 0 6 0 a3 3 0 1 0 -6 0zM701.45 599.07 a3 3 0 1 0 6 0 a3 3 0 1 0 -6 0zM680.67 611.07 a3 3 0 1 0 6 0 a3 3 0 1 0 -6 0zM659.88 599.07 a3 3 0 1 0 6 0 a3 3 0 1 0 -6 0zM659.88 575.07 a3 3 0 1 0 6 0 a3 3 0 1 0 -6 0zM722.24 203.07 a3 3 0 1 0 6 0 a3 3 0 1 0 -6 0zM743.02 215.07 a3 3 0 1 0 6 0 a3 3 0 1 0 -6 0zM743.02 239.07 a3 3 0 1 0 6 0 a3 3 0 1 0 -6 0zM701.45 215.07 a3 3 0 1 0 6 0 a3 3 0 1 0 -6 0zM784.59 23.07 a3 3 0 1 0 6 0 a3 3 0 1 0 -6 0zM805.38 35.07 a3 3 0 1 0 6 0 a3 3 0 1 0 -6 0zM805.38 59.07 a3 3 0 1 0 6 0 a3 3 0 1 0 -6 0zM784.59 71.07 a3 3 0 1 0 6 0 a3 3 0 1 0 -6 0zM763.81 59.07 a3 3 0 1 0 6 0 a3 3 0 1 0 -6 0zM763.81 35.07 a3 3 0 1 0 6 0 a3 3 0 1 0 -6 0zM784.59 95.07 a3 3 0 1 0 6 0 a3 3 0 1 0 -6 0zM763.81 107.07 a3 3 0 1 0 6 0 a3 3 0 1 0 -6 0zM743.02 95.07 a3 3 0 1 0 6 0 a3 3 0 1 0 -6 0zM743.02 71.07 a3 3 0 1 0 6 0 a3 3 0 1 0 -6 0zM763.81 203.07 a3 3 0 1 0 6 0 a3 3 0 1 0 -6 0zM784.59 215.07 a3 3 0 1 0 6 0 a3 3 0 1 0 -6 0zM784.59 239.07 a3 3 0 1 0 6 0 a3 3 0 1 0 -6 0zM763.81 251.07 a3 3 0 1 0 6 0 a3 3 0 1 0 -6 0zM805.38 251.07 a3 3 0 1 0 6 0 a3 3 0 1 0 -6 0zM805.38 275.07 a3 3 0 1 0 6 0 a3 3 0 1 0 -6 0zM784.59 287.07 a3 3 0 1 0 6 0 a3 3 0 1 0 -6 0zM763.81 275.07 a3 3 0 1 0 6 0 a3 3 0 1 0 -6 0zM763.81 347.07 a3 3 0 1 0 6 0 a3 3 0 1 0 -6 0zM784.59 359.07 a3 3 0 1 0 6 0 a3 3 0 1 0 -6 0zM784.59 383.07 a3 3 0 1 0 6 0 a3 3 0 1 0 -6 0zM763.81 395.07 a3 3 0 1 0 6 0 a3 3 0 1 0 -6 0zM743.02 383.07 a3 3 0 1 0 6 0 a3 3 0 1 0 -6 0zM743.02 359.07 a3 3 0 1 0 6 0 a3 3 0 1 0 -6 0zM805.38 395.07 a3 3 0 1 0 6 0 a3 3 0 1 0 -6 0zM805.38 419.07 a3 3 0 1 0 6 0 a3 3 0 1 0 -6 0zM784.59 431.07 a3 3 0 1 0 6 0 a3 3 0 1 0 -6 0zM763.81 419.07 a3 3 0 1 0 6 0 a3 3 0 1 0 -6 0zM826.16 95.07 a3 3 0 1 0 6 0 a3 3 0 1 0 -6 0zM846.95 107.07 a3 3 0 1 0 6 0 a3 3 0 1 0 -6 0zM846.95 131.07 a3 3 0 1 0 6 0 a3 3 0 1 0 -6 0zM826.16 143.07 a3 3 0 1 0 6 0 a3 3 0 1 0 -6 0zM805.38 131.07 a3 3 0 1 0 6 0 a3 3 0 1 0 -6 0zM805.38 107.07 a3 3 0 1 0 6 0 a3 3 0 1 0 -6 0zM826.16 311.07 a3 3 0 1 0 6 0 a3 3 0 1 0 -6 0zM846.95 323.07 a3 3 0 1 0 6 0 a3 3 0 1 0 -6 0zM846.95 347.07 a3 3 0 1 0 6 0 a3 3 0 1 0 -6 0zM826.16 359.07 a3 3 0 1 0 6 0 a3 3 0 1 0 -6 0zM805.38 347.07 a3 3 0 1 0 6 0 a3 3 0 1 0 -6 0zM805.38 323.07 a3 3 0 1 0 6 0 a3 3 0 1 0 -6 0zM826.16 455.07 a3 3 0 1 0 6 0 a3 3 0 1 0 -6 0zM846.95 467.07 a3 3 0 1 0 6 0 a3 3 0 1 0 -6 0zM846.95 491.07 a3 3 0 1 0 6 0 a3 3 0 1 0 -6 0zM826.16 503.07 a3 3 0 1 0 6 0 a3 3 0 1 0 -6 0zM805.38 491.07 a3 3 0 1 0 6 0 a3 3 0 1 0 -6 0zM805.38 467.07 a3 3 0 1 0 6 0 a3 3 0 1 0 -6 0zM805.38 563.07 a3 3 0 1 0 6 0 a3 3 0 1 0 -6 0zM826.16 575.07 a3 3 0 1 0 6 0 a3 3 0 1 0 -6 0zM826.16 599.07 a3 3 0 1 0 6 0 a3 3 0 1 0 -6 0zM805.38 611.07 a3 3 0 1 0 6 0 a3 3 0 1 0 -6 0zM784.59 599.07 a3 3 0 1 0 6 0 a3 3 0 1 0 -6 0zM784.59 575.07 a3 3 0 1 0 6 0 a3 3 0 1 0 -6 0zM867.73 23.07 a3 3 0 1 0 6 0 a3 3 0 1 0 -6 0zM888.52 35.07 a3 3 0 1 0 6 0 a3 3 0 1 0 -6 0zM888.52 59.07 a3 3 0 1 0 6 0 a3 3 0 1 0 -6 0zM867.73 71.07 a3 3 0 1 0 6 0 a3 3 0 1 0 -6 0zM846.95 59.07 a3 3 0 1 0 6 0 a3 3 0 1 0 -6 0zM846.95 35.07 a3 3 0 1 0 6 0 a3 3 0 1 0 -6 0zM846.95 275.07 a3 3 0 1 0 6 0 a3 3 0 1 0 -6 0zM867.73 287.07 a3 3 0 1 0 6 0 a3 3 0 1 0 -6 0zM867.73 311.07 a3 3 0 1 0 6 0 a3 3 0 1 0 -6 0zM826.16 287.07 a3 3 0 1 0 6 0 a3 3 0 1 0 -6 0zM888.52 323.07 a3 3 0 1 0 6 0 a3 3 0 1 0 -6 0zM888.52 347.07 a3 3 0 1 0 6 0 a3 3 0 1 0 -6 0zM867.73 359.07 a3 3 0 1 0 6 0 a3 3 0 1 0 -6 0zM867.73 527.07 a3 3 0 1 0 6 0 a3 3 0 1 0 -6 0zM888.52 539.07 a3 3 0 1 0 6 0 a3 3 0 1 0 -6 0zM888.52 563.07 a3 3 0 1 0 6 0 a3 3 0 1 0 -6 0zM867.73 575.07 a3 3 0 1 0 6 0 a3 3 0 1 0 -6 0zM846.95 563.07 a3 3 0 1 0 6 0 a3 3 0 1 0 -6 0zM846.95 539.07 a3 3 0 1 0 6 0 a3 3 0 1 0 -6 0zM909.3 23.07 a3 3 0 1 0 6 0 a3 3 0 1 0 -6 0zM930.09 35.07 a3 3 0 1 0 6 0 a3 3 0 1 0 -6 0zM930.09 59.07 a3 3 0 1 0 6 0 a3 3 0 1 0 -6 0zM909.3 71.07 a3 3 0 1 0 6 0 a3 3 0 1 0 -6 0zM909.3 95.07 a3 3 0 1 0 6 0 a3 3 0 1 0 -6 0zM930.09 107.07 a3 3 0 1 0 6 0 a3 3 0 1 0 -6 0zM930.09 131.07 a3 3 0 1 0 6 0 a3 3 0 1 0 -6 0zM909.3 143.07 a3 3 0 1 0 6 0 a3 3 0 1 0 -6 0zM888.52 131.07 a3 3 0 1 0 6 0 a3 3 0 1 0 -6 0zM888.52 107.07 a3 3 0 1 0 6 0 a3 3 0 1 0 -6 0zM909.3 167.07 a3 3 0 1 0 6 0 a3 3 0 1 0 -6 0zM888.52 179.07 a3 3 0 1 0 6 0 a3 3 0 1 0 -6 0zM867.73 167.07 a3 3 0 1 0 6 0 a3 3 0 1 0 -6 0zM867.73 143.07 a3 3 0 1 0 6 0 a3 3 0 1 0 -6 0zM888.52 275.07 a3 3 0 1 0 6 0 a3 3 0 1 0 -6 0zM909.3 287.07 a3 3 0 1 0 6 0 a3 3 0 1 0 -6 0zM909.3 311.07 a3 3 0 1 0 6 0 a3 3 0 1 0 -6 0zM930.09 323.07 a3 3 0 1 0 6 0 a3 3 0 1 0 -6 0zM930.09 347.07 a3 3 0 1 0 6 0 a3 3 0 1 0 -6 0zM909.3 359.07 a3 3 0 1 0 6 0 a3 3 0 1 0 -6 0zM909.3 383.07 a3 3 0 1 0 6 0 a3 3 0 1 0 -6 0zM930.09 395.07 a3 3 0 1 0 6 0 a3 3 0 1 0 -6 0zM930.09 419.07 a3 3 0 1 0 6 0 a3 3 0 1 0 -6 0zM909.3 431.07 a3 3 0 1 0 6 0 a3 3 0 1 0 -6 0zM888.52 419.07 a3 3 0 1 0 6 0 a3 3 0 1 0 -6 0zM888.52 395.07 a3 3 0 1 0 6 0 a3 3 0 1 0 -6 0zM930.09 -12.93 a3 3 0 1 0 6 0 a3 3 0 1 0 -6 0zM950.87 -0.93 a3 3 0 1 0 6 0 a3 3 0 1 0 -6 0zM950.87 23.07 a3 3 0 1 0 6 0 a3 3 0 1 0 -6 0zM909.3 -0.93 a3 3 0 1 0 6 0 a3 3 0 1 0 -6 0zM950.87 167.07 a3 3 0 1 0 6 0 a3 3 0 1 0 -6 0zM971.66 179.07 a3 3 0 1 0 6 0 a3 3 0 1 0 -6 0zM971.66 203.07 a3 3 0 1 0 6 0 a3 3 0 1 0 -6 0zM950.87 215.07 a3 3 0 1 0 6 0 a3 3 0 1 0 -6 0zM930.09 203.07 a3 3 0 1 0 6 0 a3 3 0 1 0 -6 0zM930.09 179.07 a3 3 0 1 0 6 0 a3 3 0 1 0 -6 0zM950.87 311.07 a3 3 0 1 0 6 0 a3 3 0 1 0 -6 0zM971.66 323.07 a3 3 0 1 0 6 0 a3 3 0 1 0 -6 0zM971.66 347.07 a3 3 0 1 0 6 0 a3 3 0 1 0 -6 0zM950.87 359.07 a3 3 0 1 0 6 0 a3 3 0 1 0 -6 0zM950.87 383.07 a3 3 0 1 0 6 0 a3 3 0 1 0 -6 0zM971.66 395.07 a3 3 0 1 0 6 0 a3 3 0 1 0 -6 0zM971.66 419.07 a3 3 0 1 0 6 0 a3 3 0 1 0 -6 0zM950.87 431.07 a3 3 0 1 0 6 0 a3 3 0 1 0 -6 0zM950.87 455.07 a3 3 0 1 0 6 0 a3 3 0 1 0 -6 0zM930.09 467.07 a3 3 0 1 0 6 0 a3 3 0 1 0 -6 0zM909.3 455.07 a3 3 0 1 0 6 0 a3 3 0 1 0 -6 0zM971.66 467.07 a3 3 0 1 0 6 0 a3 3 0 1 0 -6 0zM971.66 491.07 a3 3 0 1 0 6 0 a3 3 0 1 0 -6 0zM950.87 503.07 a3 3 0 1 0 6 0 a3 3 0 1 0 -6 0zM930.09 491.07 a3 3 0 1 0 6 0 a3 3 0 1 0 -6 0zM992.44 23.07 a3 3 0 1 0 6 0 a3 3 0 1 0 -6 0zM1013.23 35.07 a3 3 0 1 0 6 0 a3 3 0 1 0 -6 0zM1013.23 59.07 a3 3 0 1 0 6 0 a3 3 0 1 0 -6 0zM992.44 71.07 a3 3 0 1 0 6 0 a3 3 0 1 0 -6 0zM971.66 59.07 a3 3 0 1 0 6 0 a3 3 0 1 0 -6 0zM971.66 35.07 a3 3 0 1 0 6 0 a3 3 0 1 0 -6 0zM992.44 95.07 a3 3 0 1 0 6 0 a3 3 0 1 0 -6 0zM971.66 107.07 a3 3 0 1 0 6 0 a3 3 0 1 0 -6 0zM950.87 95.07 a3 3 0 1 0 6 0 a3 3 0 1 0 -6 0zM950.87 71.07 a3 3 0 1 0 6 0 a3 3 0 1 0 -6 0zM971.66 131.07 a3 3 0 1 0 6 0 a3 3 0 1 0 -6 0zM992.44 143.07 a3 3 0 1 0 6 0 a3 3 0 1 0 -6 0zM992.44 167.07 a3 3 0 1 0 6 0 a3 3 0 1 0 -6 0zM950.87 143.07 a3 3 0 1 0 6 0 a3 3 0 1 0 -6 0zM992.44 215.07 a3 3 0 1 0 6 0 a3 3 0 1 0 -6 0zM992.44 239.07 a3 3 0 1 0 6 0 a3 3 0 1 0 -6 0zM971.66 251.07 a3 3 0 1 0 6 0 a3 3 0 1 0 -6 0zM950.87 239.07 a3 3 0 1 0 6 0 a3 3 0 1 0 -6 0zM1013.23 251.07 a3 3 0 1 0 6 0 a3 3 0 1 0 -6 0zM1013.23 275.07 a3 3 0 1 0 6 0 a3 3 0 1 0 -6 0zM992.44 287.07 a3 3 0 1 0 6 0 a3 3 0 1 0 -6 0zM971.66 275.07 a3 3 0 1 0 6 0 a3 3 0 1 0 -6 0zM992.44 431.07 a3 3 0 1 0 6 0 a3 3 0 1 0 -6 0zM992.44 455.07 a3 3 0 1 0 6 0 a3 3 0 1 0 -6 0zM971.66 563.07 a3 3 0 1 0 6 0 a3 3 0 1 0 -6 0zM992.44 575.07 a3 3 0 1 0 6 0 a3 3 0 1 0 -6 0zM992.44 599.07 a3 3 0 1 0 6 0 a3 3 0 1 0 -6 0zM971.66 611.07 a3 3 0 1 0 6 0 a3 3 0 1 0 -6 0zM950.87 599.07 a3 3 0 1 0 6 0 a3 3 0 1 0 -6 0zM950.87 575.07 a3 3 0 1 0 6 0 a3 3 0 1 0 -6 0zM1034.01 71.07 a3 3 0 1 0 6 0 a3 3 0 1 0 -6 0zM1034.01 95.07 a3 3 0 1 0 6 0 a3 3 0 1 0 -6 0zM1013.23 107.07 a3 3 0 1 0 6 0 a3 3 0 1 0 -6 0zM1013.23 131.07 a3 3 0 1 0 6 0 a3 3 0 1 0 -6 0zM1034.01 143.07 a3 3 0 1 0 6 0 a3 3 0 1 0 -6 0zM1034.01 167.07 a3 3 0 1 0 6 0 a3 3 0 1 0 -6 0zM1013.23 179.07 a3 3 0 1 0 6 0 a3 3 0 1 0 -6 0zM1013.23 347.07 a3 3 0 1 0 6 0 a3 3 0 1 0 -6 0zM1034.01 359.07 a3 3 0 1 0 6 0 a3 3 0 1 0 -6 0zM1034.01 383.07 a3 3 0 1 0 6 0 a3 3 0 1 0 -6 0zM1013.23 395.07 a3 3 0 1 0 6 0 a3 3 0 1 0 -6 0zM992.44 383.07 a3 3 0 1 0 6 0 a3 3 0 1 0 -6 0zM992.44 359.07 a3 3 0 1 0 6 0 a3 3 0 1 0 -6 0zM1013.23 419.07 a3 3 0 1 0 6 0 a3 3 0 1 0 -6 0zM1034.01 431.07 a3 3 0 1 0 6 0 a3 3 0 1 0 -6 0zM1034.01 455.07 a3 3 0 1 0 6 0 a3 3 0 1 0 -6 0zM1013.23 467.07 a3 3 0 1 0 6 0 a3 3 0 1 0 -6 0zM1013.23 563.07 a3 3 0 1 0 6 0 a3 3 0 1 0 -6 0zM1034.01 575.07 a3 3 0 1 0 6 0 a3 3 0 1 0 -6 0zM1034.01 599.07 a3 3 0 1 0 6 0 a3 3 0 1 0 -6 0zM1013.23 611.07 a3 3 0 1 0 6 0 a3 3 0 1 0 -6 0zM1075.59 23.07 a3 3 0 1 0 6 0 a3 3 0 1 0 -6 0zM1096.37 35.07 a3 3 0 1 0 6 0 a3 3 0 1 0 -6 0zM1096.37 59.07 a3 3 0 1 0 6 0 a3 3 0 1 0 -6 0zM1075.59 71.07 a3 3 0 1 0 6 0 a3 3 0 1 0 -6 0zM1054.8 59.07 a3 3 0 1 0 6 0 a3 3 0 1 0 -6 0zM1054.8 35.07 a3 3 0 1 0 6 0 a3 3 0 1 0 -6 0zM1075.59 167.07 a3 3 0 1 0 6 0 a3 3 0 1 0 -6 0zM1096.37 179.07 a3 3 0 1 0 6 0 a3 3 0 1 0 -6 0zM1096.37 203.07 a3 3 0 1 0 6 0 a3 3 0 1 0 -6 0zM1075.59 215.07 a3 3 0 1 0 6 0 a3 3 0 1 0 -6 0zM1054.8 203.07 a3 3 0 1 0 6 0 a3 3 0 1 0 -6 0zM1054.8 179.07 a3 3 0 1 0 6 0 a3 3 0 1 0 -6 0zM1075.59 239.07 a3 3 0 1 0 6 0 a3 3 0 1 0 -6 0zM1096.37 251.07 a3 3 0 1 0 6 0 a3 3 0 1 0 -6 0zM1096.37 275.07 a3 3 0 1 0 6 0 a3 3 0 1 0 -6 0zM1075.59 287.07 a3 3 0 1 0 6 0 a3 3 0 1 0 -6 0zM1054.8 275.07 a3 3 0 1 0 6 0 a3 3 0 1 0 -6 0zM1054.8 251.07 a3 3 0 1 0 6 0 a3 3 0 1 0 -6 0zM1075.59 311.07 a3 3 0 1 0 6 0 a3 3 0 1 0 -6 0zM1096.37 323.07 a3 3 0 1 0 6 0 a3 3 0 1 0 -6 0zM1096.37 347.07 a3 3 0 1 0 6 0 a3 3 0 1 0 -6 0zM1075.59 359.07 a3 3 0 1 0 6 0 a3 3 0 1 0 -6 0zM1054.8 347.07 a3 3 0 1 0 6 0 a3 3 0 1 0 -6 0zM1054.8 323.07 a3 3 0 1 0 6 0 a3 3 0 1 0 -6 0zM1075.59 383.07 a3 3 0 1 0 6 0 a3 3 0 1 0 -6 0zM1096.37 395.07 a3 3 0 1 0 6 0 a3 3 0 1 0 -6 0zM1096.37 419.07 a3 3 0 1 0 6 0 a3 3 0 1 0 -6 0zM1075.59 431.07 a3 3 0 1 0 6 0 a3 3 0 1 0 -6 0zM1054.8 419.07 a3 3 0 1 0 6 0 a3 3 0 1 0 -6 0zM1054.8 395.07 a3 3 0 1 0 6 0 a3 3 0 1 0 -6 0zM1075.59 455.07 a3 3 0 1 0 6 0 a3 3 0 1 0 -6 0zM1096.37 467.07 a3 3 0 1 0 6 0 a3 3 0 1 0 -6 0zM1096.37 491.07 a3 3 0 1 0 6 0 a3 3 0 1 0 -6 0zM1075.59 503.07 a3 3 0 1 0 6 0 a3 3 0 1 0 -6 0zM1054.8 491.07 a3 3 0 1 0 6 0 a3 3 0 1 0 -6 0zM1054.8 467.07 a3 3 0 1 0 6 0 a3 3 0 1 0 -6 0zM1075.59 527.07 a3 3 0 1 0 6 0 a3 3 0 1 0 -6 0zM1054.8 539.07 a3 3 0 1 0 6 0 a3 3 0 1 0 -6 0zM1034.01 527.07 a3 3 0 1 0 6 0 a3 3 0 1 0 -6 0zM1034.01 503.07 a3 3 0 1 0 6 0 a3 3 0 1 0 -6 0zM1117.16 71.07 a3 3 0 1 0 6 0 a3 3 0 1 0 -6 0zM1117.16 95.07 a3 3 0 1 0 6 0 a3 3 0 1 0 -6 0zM1096.37 107.07 a3 3 0 1 0 6 0 a3 3 0 1 0 -6 0zM1075.59 95.07 a3 3 0 1 0 6 0 a3 3 0 1 0 -6 0zM1117.16 239.07 a3 3 0 1 0 6 0 a3 3 0 1 0 -6 0zM1137.94 251.07 a3 3 0 1 0 6 0 a3 3 0 1 0 -6 0zM1137.94 275.07 a3 3 0 1 0 6 0 a3 3 0 1 0 -6 0zM1117.16 287.07 a3 3 0 1 0 6 0 a3 3 0 1 0 -6 0zM1117.16 311.07 a3 3 0 1 0 6 0 a3 3 0 1 0 -6 0zM1137.94 323.07 a3 3 0 1 0 6 0 a3 3 0 1 0 -6 0zM1137.94 347.07 a3 3 0 1 0 6 0 a3 3 0 1 0 -6 0zM1117.16 359.07 a3 3 0 1 0 6 0 a3 3 0 1 0 -6 0zM1117.16 383.07 a3 3 0 1 0 6 0 a3 3 0 1 0 -6 0zM1137.94 395.07 a3 3 0 1 0 6 0 a3 3 0 1 0 -6 0zM1137.94 419.07 a3 3 0 1 0 6 0 a3 3 0 1 0 -6 0zM1117.16 431.07 a3 3 0 1 0 6 0 a3 3 0 1 0 -6 0zM1117.16 527.07 a3 3 0 1 0 6 0 a3 3 0 1 0 -6 0zM1137.94 539.07 a3 3 0 1 0 6 0 a3 3 0 1 0 -6 0zM1137.94 563.07 a3 3 0 1 0 6 0 a3 3 0 1 0 -6 0zM1117.16 575.07 a3 3 0 1 0 6 0 a3 3 0 1 0 -6 0zM1096.37 563.07 a3 3 0 1 0 6 0 a3 3 0 1 0 -6 0zM1096.37 539.07 a3 3 0 1 0 6 0 a3 3 0 1 0 -6 0zM1158.73 23.07 a3 3 0 1 0 6 0 a3 3 0 1 0 -6 0zM1179.51 35.07 a3 3 0 1 0 6 0 a3 3 0 1 0 -6 0zM1179.51 59.07 a3 3 0 1 0 6 0 a3 3 0 1 0 -6 0zM1158.73 71.07 a3 3 0 1 0 6 0 a3 3 0 1 0 -6 0zM1137.94 59.07 a3 3 0 1 0 6 0 a3 3 0 1 0 -6 0zM1137.94 35.07 a3 3 0 1 0 6 0 a3 3 0 1 0 -6 0zM1137.94 131.07 a3 3 0 1 0 6 0 a3 3 0 1 0 -6 0zM1158.73 143.07 a3 3 0 1 0 6 0 a3 3 0 1 0 -6 0zM1158.73 167.07 a3 3 0 1 0 6 0 a3 3 0 1 0 -6 0zM1137.94 179.07 a3 3 0 1 0 6 0 a3 3 0 1 0 -6 0zM1117.16 167.07 a3 3 0 1 0 6 0 a3 3 0 1 0 -6 0zM1117.16 143.07 a3 3 0 1 0 6 0 a3 3 0 1 0 -6 0zM1158.73 311.07 a3 3 0 1 0 6 0 a3 3 0 1 0 -6 0zM1179.51 323.07 a3 3 0 1 0 6 0 a3 3 0 1 0 -6 0zM1179.51 347.07 a3 3 0 1 0 6 0 a3 3 0 1 0 -6 0zM1158.73 359.07 a3 3 0 1 0 6 0 a3 3 0 1 0 -6 0zM1158.73 431.07 a3 3 0 1 0 6 0 a3 3 0 1 0 -6 0zM1158.73 455.07 a3 3 0 1 0 6 0 a3 3 0 1 0 -6 0zM1137.94 467.07 a3 3 0 1 0 6 0 a3 3 0 1 0 -6 0zM1117.16 455.07 a3 3 0 1 0 6 0 a3 3 0 1 0 -6 0zM1179.51 467.07 a3 3 0 1 0 6 0 a3 3 0 1 0 -6 0zM1179.51 491.07 a3 3 0 1 0 6 0 a3 3 0 1 0 -6 0zM1158.73 503.07 a3 3 0 1 0 6 0 a3 3 0 1 0 -6 0zM1137.94 491.07 a3 3 0 1 0 6 0 a3 3 0 1 0 -6 0zM1200.3 71.07 a3 3 0 1 0 6 0 a3 3 0 1 0 -6 0zM1200.3 95.07 a3 3 0 1 0 6 0 a3 3 0 1 0 -6 0zM1179.51 107.07 a3 3 0 1 0 6 0 a3 3 0 1 0 -6 0zM1158.73 95.07 a3 3 0 1 0 6 0 a3 3 0 1 0 -6 0zM1200.3 239.07 a3 3 0 1 0 6 0 a3 3 0 1 0 -6 0zM1221.08 251.07 a3 3 0 1 0 6 0 a3 3 0 1 0 -6 0zM1221.08 275.07 a3 3 0 1 0 6 0 a3 3 0 1 0 -6 0zM1200.3 287.07 a3 3 0 1 0 6 0 a3 3 0 1 0 -6 0zM1179.51 275.07 a3 3 0 1 0 6 0 a3 3 0 1 0 -6 0zM1179.51 251.07 a3 3 0 1 0 6 0 a3 3 0 1 0 -6 0zM1200.3 311.07 a3 3 0 1 0 6 0 a3 3 0 1 0 -6 0zM1158.73 287.07 a3 3 0 1 0 6 0 a3 3 0 1 0 -6 0zM1200.3 359.07 a3 3 0 1 0 6 0 a3 3 0 1 0 -6 0zM1200.3 383.07 a3 3 0 1 0 6 0 a3 3 0 1 0 -6 0zM1179.51 395.07 a3 3 0 1 0 6 0 a3 3 0 1 0 -6 0zM1158.73 383.07 a3 3 0 1 0 6 0 a3 3 0 1 0 -6 0zM1221.08 395.07 a3 3 0 1 0 6 0 a3 3 0 1 0 -6 0zM1221.08 419.07 a3 3 0 1 0 6 0 a3 3 0 1 0 -6 0zM1200.3 431.07 a3 3 0 1 0 6 0 a3 3 0 1 0 -6 0zM1179.51 419.07 a3 3 0 1 0 6 0 a3 3 0 1 0 -6 0zM1200.3 455.07 a3 3 0 1 0 6 0 a3 3 0 1 0 -6 0zM1221.08 467.07 a3 3 0 1 0 6 0 a3 3 0 1 0 -6 0zM1221.08 491.07 a3 3 0 1 0 6 0 a3 3 0 1 0 -6 0zM1200.3 503.07 a3 3 0 1 0 6 0 a3 3 0 1 0 -6 0zM1221.08 -12.93 a3 3 0 1 0 6 0 a3 3 0 1 0 -6 0zM1241.87 -0.93 a3 3 0 1 0 6 0 a3 3 0 1 0 -6 0zM1241.87 23.07 a3 3 0 1 0 6 0 a3 3 0 1 0 -6 0zM1221.08 35.07 a3 3 0 1 0 6 0 a3 3 0 1 0 -6 0zM1200.3 23.07 a3 3 0 1 0 6 0 a3 3 0 1 0 -6 0zM1200.3 -0.93 a3 3 0 1 0 6 0 a3 3 0 1 0 -6 0zM1241.87 287.07 a3 3 0 1 0 6 0 a3 3 0 1 0 -6 0zM1241.87 311.07 a3 3 0 1 0 6 0 a3 3 0 1 0 -6 0zM1221.08 323.07 a3 3 0 1 0 6 0 a3 3 0 1 0 -6 0zM1241.87 383.07 a3 3 0 1 0 6 0 a3 3 0 1 0 -6 0zM1262.65 395.07 a3 3 0 1 0 6 0 a3 3 0 1 0 -6 0zM1262.65 419.07 a3 3 0 1 0 6 0 a3 3 0 1 0 -6 0zM1241.87 431.07 a3 3 0 1 0 6 0 a3 3 0 1 0 -6 0zM1241.87 503.07 a3 3 0 1 0 6 0 a3 3 0 1 0 -6 0zM1241.87 527.07 a3 3 0 1 0 6 0 a3 3 0 1 0 -6 0zM1221.08 539.07 a3 3 0 1 0 6 0 a3 3 0 1 0 -6 0zM1200.3 527.07 a3 3 0 1 0 6 0 a3 3 0 1 0 -6 0zM1262.65 -12.93 a3 3 0 1 0 6 0 a3 3 0 1 0 -6 0zM1283.44 -0.93 a3 3 0 1 0 6 0 a3 3 0 1 0 -6 0zM1283.44 23.07 a3 3 0 1 0 6 0 a3 3 0 1 0 -6 0zM1262.65 35.07 a3 3 0 1 0 6 0 a3 3 0 1 0 -6 0zM1304.22 35.07 a3 3 0 1 0 6 0 a3 3 0 1 0 -6 0zM1304.22 59.07 a3 3 0 1 0 6 0 a3 3 0 1 0 -6 0zM1283.44 71.07 a3 3 0 1 0 6 0 a3 3 0 1 0 -6 0zM1262.65 59.07 a3 3 0 1 0 6 0 a3 3 0 1 0 -6 0zM1283.44 95.07 a3 3 0 1 0 6 0 a3 3 0 1 0 -6 0zM1262.65 107.07 a3 3 0 1 0 6 0 a3 3 0 1 0 -6 0zM1241.87 95.07 a3 3 0 1 0 6 0 a3 3 0 1 0 -6 0zM1241.87 71.07 a3 3 0 1 0 6 0 a3 3 0 1 0 -6 0zM1283.44 311.07 a3 3 0 1 0 6 0 a3 3 0 1 0 -6 0zM1304.22 323.07 a3 3 0 1 0 6 0 a3 3 0 1 0 -6 0zM1304.22 347.07 a3 3 0 1 0 6 0 a3 3 0 1 0 -6 0zM1283.44 359.07 a3 3 0 1 0 6 0 a3 3 0 1 0 -6 0zM1262.65 347.07 a3 3 0 1 0 6 0 a3 3 0 1 0 -6 0zM1262.65 323.07 a3 3 0 1 0 6 0 a3 3 0 1 0 -6 0zM1325.01 239.07 a3 3 0 1 0 6 0 a3 3 0 1 0 -6 0zM1345.79 251.07 a3 3 0 1 0 6 0 a3 3 0 1 0 -6 0zM1345.79 275.07 a3 3 0 1 0 6 0 a3 3 0 1 0 -6 0zM1325.01 287.07 a3 3 0 1 0 6 0 a3 3 0 1 0 -6 0zM1304.22 275.07 a3 3 0 1 0 6 0 a3 3 0 1 0 -6 0zM1304.22 251.07 a3 3 0 1 0 6 0 a3 3 0 1 0 -6 0zM1304.22 563.07 a3 3 0 1 0 6 0 a3 3 0 1 0 -6 0zM1325.01 575.07 a3 3 0 1 0 6 0 a3 3 0 1 0 -6 0zM1325.01 599.07 a3 3 0 1 0 6 0 a3 3 0 1 0 -6 0zM1304.22 611.07 a3 3 0 1 0 6 0 a3 3 0 1 0 -6 0zM1283.44 599.07 a3 3 0 1 0 6 0 a3 3 0 1 0 -6 0zM1283.44 575.07 a3 3 0 1 0 6 0 a3 3 0 1 0 -6 0zM1366.58 287.07 a3 3 0 1 0 6 0 a3 3 0 1 0 -6 0zM1366.58 311.07 a3 3 0 1 0 6 0 a3 3 0 1 0 -6 0zM1345.79 323.07 a3 3 0 1 0 6 0 a3 3 0 1 0 -6 0zM1325.01 311.07 a3 3 0 1 0 6 0 a3 3 0 1 0 -6 0zM1345.79 347.07 a3 3 0 1 0 6 0 a3 3 0 1 0 -6 0zM1366.58 359.07 a3 3 0 1 0 6 0 a3 3 0 1 0 -6 0zM1366.58 383.07 a3 3 0 1 0 6 0 a3 3 0 1 0 -6 0zM1345.79 395.07 a3 3 0 1 0 6 0 a3 3 0 1 0 -6 0zM1325.01 383.07 a3 3 0 1 0 6 0 a3 3 0 1 0 -6 0zM1325.01 359.07 a3 3 0 1 0 6 0 a3 3 0 1 0 -6 0zM1387.36 -12.93 a3 3 0 1 0 6 0 a3 3 0 1 0 -6 0zM1408.15 -0.93 a3 3 0 1 0 6 0 a3 3 0 1 0 -6 0zM1408.15 23.07 a3 3 0 1 0 6 0 a3 3 0 1 0 -6 0zM1387.36 35.07 a3 3 0 1 0 6 0 a3 3 0 1 0 -6 0zM1366.58 23.07 a3 3 0 1 0 6 0 a3 3 0 1 0 -6 0zM1366.58 -0.93 a3 3 0 1 0 6 0 a3 3 0 1 0 -6 0zM1387.36 131.07 a3 3 0 1 0 6 0 a3 3 0 1 0 -6 0zM1408.15 143.07 a3 3 0 1 0 6 0 a3 3 0 1 0 -6 0zM1408.15 167.07 a3 3 0 1 0 6 0 a3 3 0 1 0 -6 0zM1387.36 179.07 a3 3 0 1 0 6 0 a3 3 0 1 0 -6 0zM1366.58 167.07 a3 3 0 1 0 6 0 a3 3 0 1 0 -6 0zM1366.58 143.07 a3 3 0 1 0 6 0 a3 3 0 1 0 -6 0zM1428.93 179.07 a3 3 0 1 0 6 0 a3 3 0 1 0 -6 0zM1428.93 203.07 a3 3 0 1 0 6 0 a3 3 0 1 0 -6 0zM1408.15 215.07 a3 3 0 1 0 6 0 a3 3 0 1 0 -6 0zM1387.36 203.07 a3 3 0 1 0 6 0 a3 3 0 1 0 -6 0zM1387.36 491.07 a3 3 0 1 0 6 0 a3 3 0 1 0 -6 0zM1408.15 503.07 a3 3 0 1 0 6 0 a3 3 0 1 0 -6 0zM1408.15 527.07 a3 3 0 1 0 6 0 a3 3 0 1 0 -6 0zM1387.36 539.07 a3 3 0 1 0 6 0 a3 3 0 1 0 -6 0zM1366.58 527.07 a3 3 0 1 0 6 0 a3 3 0 1 0 -6 0zM1366.58 503.07 a3 3 0 1 0 6 0 a3 3 0 1 0 -6 0zM1449.72 215.07 a3 3 0 1 0 6 0 a3 3 0 1 0 -6 0zM1449.72 239.07 a3 3 0 1 0 6 0 a3 3 0 1 0 -6 0zM1428.93 251.07 a3 3 0 1 0 6 0 a3 3 0 1 0 -6 0zM1408.15 239.07 a3 3 0 1 0 6 0 a3 3 0 1 0 -6 0z" fill="rgba(66, 68, 90, 1)"></path>
        <path d="M18.84 -48.97L62.14 -23.97L62.14 26.03L18.84 51.03L-24.46 26.03L-24.46 -23.97zM105.45 -48.97L148.75 -23.97L148.75 26.03L105.45 51.03L62.14 26.03L62.14 -23.97zM235.35 26.03L278.65 51.03L278.65 101.03L235.35 126.03L192.05 101.03L192.05 51.03zM192.05 101.03L235.35 126.03L235.35 176.03L192.05 201.03L148.75 176.03L148.75 126.03zM235.35 176.03L278.65 201.03L278.65 251.03L235.35 276.03L192.05 251.03L192.05 201.03zM192.05 251.03L235.35 276.03L235.35 326.03L192.05 351.03L148.75 326.03L148.75 276.03zM235.35 476.03L278.65 501.03L278.65 551.03L235.35 576.03L192.05 551.03L192.05 501.03zM321.96 476.03L365.26 501.03L365.26 551.03L321.96 576.03L278.65 551.03L278.65 501.03zM408.56 26.03L451.87 51.03L451.87 101.03L408.56 126.03L365.26 101.03L365.26 51.03zM365.26 251.03L408.56 276.03L408.56 326.03L365.26 351.03L321.96 326.03L321.96 276.03zM495.17 26.03L538.47 51.03L538.47 101.03L495.17 126.03L451.87 101.03L451.87 51.03zM451.87 101.03L495.17 126.03L495.17 176.03L451.87 201.03L408.56 176.03L408.56 126.03zM495.17 326.03L538.47 351.03L538.47 401.03L495.17 426.03L451.87 401.03L451.87 351.03zM538.47 -48.97L581.77 -23.97L581.77 26.03L538.47 51.03L495.17 26.03L495.17 -23.97zM581.77 26.03L625.08 51.03L625.08 101.03L581.77 126.03L538.47 101.03L538.47 51.03zM538.47 251.03L581.77 276.03L581.77 326.03L538.47 351.03L495.17 326.03L495.17 276.03zM625.08 -48.97L668.38 -23.97L668.38 26.03L625.08 51.03L581.77 26.03L581.77 -23.97zM668.38 176.03L711.68 201.03L711.68 251.03L668.38 276.03L625.08 251.03L625.08 201.03zM754.98 26.03L798.29 51.03L798.29 101.03L754.98 126.03L711.68 101.03L711.68 51.03zM884.89 -48.97L928.19 -23.97L928.19 26.03L884.89 51.03L841.59 26.03L841.59 -23.97zM928.19 176.03L971.5 201.03L971.5 251.03L928.19 276.03L884.89 251.03L884.89 201.03zM1101.4 326.03L1144.7 351.03L1144.7 401.03L1101.4 426.03L1058.1 401.03L1058.1 351.03zM1101.4 476.03L1144.7 501.03L1144.7 551.03L1101.4 576.03L1058.1 551.03L1058.1 501.03zM1144.7 251.03L1188.01 276.03L1188.01 326.03L1144.7 351.03L1101.4 326.03L1101.4 276.03zM1231.31 101.03L1274.61 126.03L1274.61 176.03L1231.31 201.03L1188.01 176.03L1188.01 126.03zM1274.61 326.03L1317.91 351.03L1317.91 401.03L1274.61 426.03L1231.31 401.03L1231.31 351.03zM1361.22 26.03L1404.52 51.03L1404.52 101.03L1361.22 126.03L1317.91 101.03L1317.91 51.03zM1361.22 176.03L1404.52 201.03L1404.52 251.03L1361.22 276.03L1317.91 251.03L1317.91 201.03zM1317.91 251.03L1361.22 276.03L1361.22 326.03L1317.91 351.03L1274.61 326.03L1274.61 276.03zM1404.52 251.03L1447.82 276.03L1447.82 326.03L1404.52 351.03L1361.22 326.03L1361.22 276.03zM1447.82 326.03L1491.13 351.03L1491.13 401.03L1447.82 426.03L1404.52 401.03L1404.52 351.03zM1404.52 401.03L1447.82 426.03L1447.82 476.03L1404.52 501.03L1361.22 476.03L1361.22 426.03z" stroke="rgba(186, 191, 197, 0.93)" stroke-width="2"></path>
    </g>
    <defs>
        <mask id="SvgjsMask1006">
            <rect width="1440" height="560" fill="#ffffff"></rect>
        </mask>
    </defs>
</svg>